<?xml version="1.0" encoding="UTF-8"?>
<!DOCTYPE svg PUBLIC "-//W3C//DTD SVG 1.1//EN" "http://www.w3.org/Graphics/SVG/1.1/DTD/svg11.dtd">
<!-- Creator: CorelDRAW 2021 (64-Bit Оценочная версия) -->
<svg xmlns="http://www.w3.org/2000/svg" xml:space="preserve" width="16.7068mm" height="16.7068mm" version="1.1" style="shape-rendering:geometricPrecision; text-rendering:geometricPrecision; image-rendering:optimizeQuality; fill-rule:evenodd; clip-rule:evenodd"
viewBox="0 0 214.24 214.24"
 xmlns:xlink="http://www.w3.org/1999/xlink"
 xmlns:xodm="http://www.corel.com/coreldraw/odm/2003">
 <defs>
  <style type="text/css">
   <![CDATA[
    .fil0 {fill:white;fill-rule:nonzero}
   ]]>
  </style>
 </defs>
 <g id="Слой_x0020_1">
  <metadata id="CorelCorpID_0Corel-Layer"/>
  <path class="fil0" d="M131.81 38.08l-50.21 0c-3.47,0 -6.28,2.81 -6.28,6.28 0,3.47 2.81,6.28 6.28,6.28l50.21 0c3.47,0 6.28,-2.81 6.28,-6.28 0,-3.47 -2.81,-6.28 -6.28,-6.28z"/>
  <path class="fil0" d="M131.81 63.19l-50.21 0c-3.47,0 -6.28,2.81 -6.28,6.28 0,3.47 2.81,6.28 6.28,6.28l50.21 0c3.47,0 6.28,-2.81 6.28,-6.28 0,-3.47 -2.81,-6.28 -6.28,-6.28z"/>
  <path class="fil0" d="M131.81 88.29l-100.43 0c-3.47,0 -6.28,2.81 -6.28,6.28 0,3.47 2.81,6.28 6.28,6.28l100.43 0c3.47,0 6.28,-2.81 6.28,-6.28 0,-3.47 -2.81,-6.28 -6.28,-6.28z"/>
  <path class="fil0" d="M109.06 113.4l-77.67 0c-3.47,0 -6.28,2.81 -6.28,6.28 0,3.47 2.81,6.28 6.28,6.28l77.67 0c3.47,0 6.28,-2.81 6.28,-6.28 0,-3.47 -2.81,-6.28 -6.28,-6.28z"/>
  <path class="fil0" d="M163.61 113.4l0 -94.57c0,-10.41 -8.83,-18.83 -19.25,-18.83l-87.87 0c-1.59,0 -3.23,0.63 -4.45,1.86l-50.21 50.63c-1.15,1.16 -1.82,2.78 -1.82,4.42l0 138.51c0,10.38 8.45,18.83 18.83,18.83 13.24,0 17.64,0 17.62,0 19.25,0 57.13,0 127.16,0 27.71,0 50.63,-22.82 50.63,-50.63 0,-27.69 -22.71,-50.21 -50.63,-50.21zm-113.4 -91.88l0 29.11 -28.87 0 28.87 -29.11zm-31.38 180.17c-3.46,0 -6.28,-2.82 -6.28,-6.28l0 -132.23 43.94 0c3.47,0 6.28,-2.81 6.28,-6.28l0 -44.36 81.6 0c3.57,0 6.7,2.93 6.7,6.28l0 96.13c-13.32,3.38 -24.54,12.02 -31.28,23.54l-88.39 0c-3.47,0 -6.28,2.81 -6.28,6.28 0,3.47 2.81,6.28 6.28,6.28l83.2 0c-1.05,4.01 -1.6,8.22 -1.6,12.55l-81.6 0c-3.47,0 -6.28,2.81 -6.28,6.28 0,3.47 2.81,6.28 6.28,6.28l83.19 0c2.54,9.82 8.02,18.66 15.85,25.53l-111.59 0zm144.78 0c-20.64,0 -38.08,-17.44 -38.08,-38.08 0,-20.77 17.08,-37.66 38.08,-37.66 21,0 38.08,16.89 38.08,37.66 0,20.64 -17.44,38.08 -38.08,38.08z"/>
  <path class="fil0" d="M187.34 152.93c-2.43,-2.47 -6.41,-2.5 -8.88,-0.07l-21.16 20.81 -8.57 -8.29c-2.49,-2.41 -6.46,-2.35 -8.88,0.14 -2.41,2.49 -2.35,6.46 0.14,8.88l12.97 12.55c2.45,2.37 6.34,2.35 8.77,-0.03l25.53 -25.11c2.47,-2.43 2.5,-6.4 0.07,-8.88z"/>
  <path class="fil0" d="M131.81 38.08l-50.21 0c-3.47,0 -6.28,2.81 -6.28,6.28 0,3.47 2.81,6.28 6.28,6.28l50.21 0c3.47,0 6.28,-2.81 6.28,-6.28 0,-3.47 -2.81,-6.28 -6.28,-6.28z"/>
  <path class="fil0" d="M131.81 63.19l-50.21 0c-3.47,0 -6.28,2.81 -6.28,6.28 0,3.47 2.81,6.28 6.28,6.28l50.21 0c3.47,0 6.28,-2.81 6.28,-6.28 0,-3.47 -2.81,-6.28 -6.28,-6.28z"/>
  <path class="fil0" d="M131.81 88.29l-100.43 0c-3.47,0 -6.28,2.81 -6.28,6.28 0,3.47 2.81,6.28 6.28,6.28l100.43 0c3.47,0 6.28,-2.81 6.28,-6.28 0,-3.47 -2.81,-6.28 -6.28,-6.28z"/>
  <path class="fil0" d="M109.06 113.4l-77.67 0c-3.47,0 -6.28,2.81 -6.28,6.28 0,3.47 2.81,6.28 6.28,6.28l77.67 0c3.47,0 6.28,-2.81 6.28,-6.28 0,-3.47 -2.81,-6.28 -6.28,-6.28z"/>
  <path class="fil0" d="M163.61 113.4l0 -94.57c0,-10.41 -8.83,-18.83 -19.25,-18.83l-87.87 0c-1.59,0 -3.23,0.63 -4.45,1.86l-50.21 50.63c-1.15,1.16 -1.82,2.78 -1.82,4.42l0 138.51c0,10.38 8.45,18.83 18.83,18.83 13.24,0 17.64,0 17.62,0 19.25,0 57.13,0 127.16,0 27.71,0 50.63,-22.82 50.63,-50.63 0,-27.69 -22.71,-50.21 -50.63,-50.21zm-113.4 -91.88l0 29.11 -28.87 0 28.87 -29.11zm-31.38 180.17c-3.46,0 -6.28,-2.82 -6.28,-6.28l0 -132.23 43.94 0c3.47,0 6.28,-2.81 6.28,-6.28l0 -44.36 81.6 0c3.57,0 6.7,2.93 6.7,6.28l0 96.13c-13.32,3.38 -24.54,12.02 -31.28,23.54l-88.39 0c-3.47,0 -6.28,2.81 -6.28,6.28 0,3.47 2.81,6.28 6.28,6.28l83.2 0c-1.05,4.01 -1.6,8.22 -1.6,12.55l-81.6 0c-3.47,0 -6.28,2.81 -6.28,6.28 0,3.47 2.81,6.28 6.28,6.28l83.19 0c2.54,9.82 8.02,18.66 15.85,25.53l-111.59 0zm144.78 0c-20.64,0 -38.08,-17.44 -38.08,-38.08 0,-20.77 17.08,-37.66 38.08,-37.66 21,0 38.08,16.89 38.08,37.66 0,20.64 -17.44,38.08 -38.08,38.08z"/>
  <path class="fil0" d="M187.34 152.93c-2.43,-2.47 -6.41,-2.5 -8.88,-0.07l-21.16 20.81 -8.57 -8.29c-2.49,-2.41 -6.46,-2.35 -8.88,0.14 -2.41,2.49 -2.35,6.46 0.14,8.88l12.97 12.55c2.45,2.37 6.34,2.35 8.77,-0.03l25.53 -25.11c2.47,-2.43 2.5,-6.4 0.07,-8.88z"/>
 </g>
</svg>
