<?xml version="1.0" encoding="UTF-8"?>
<!DOCTYPE svg PUBLIC "-//W3C//DTD SVG 1.1//EN" "http://www.w3.org/Graphics/SVG/1.1/DTD/svg11.dtd">
<!-- Creator: CorelDRAW 2021 (64-Bit Оценочная версия) -->
<svg xmlns="http://www.w3.org/2000/svg" xml:space="preserve" width="5.0696mm" height="5.0696mm" version="1.1" style="shape-rendering:geometricPrecision; text-rendering:geometricPrecision; image-rendering:optimizeQuality; fill-rule:evenodd; clip-rule:evenodd"
viewBox="0 0 21.41 21.41"
 xmlns:xlink="http://www.w3.org/1999/xlink"
 xmlns:xodm="http://www.corel.com/coreldraw/odm/2003">
 <defs>
  <style type="text/css">
   <![CDATA[
    .fil0 {fill:white;fill-rule:nonzero}
   ]]>
  </style>
 </defs>
 <g id="Слой_x0020_1">
  <metadata id="CorelCorpID_0Corel-Layer"/>
  <path class="fil0" d="M21.41 10.71c0,-5.91 -4.79,-10.71 -10.71,-10.71 -5.91,0 -10.71,4.79 -10.71,10.71 0,5.91 4.79,10.71 10.71,10.71 0.06,0 0.13,0 0.19,-0l0 -8.33 -2.3 0 0 -2.68 2.3 0 0 -1.97c0,-2.29 1.4,-3.53 3.44,-3.53 0.98,0 1.82,0.07 2.06,0.1l0 2.39 -1.41 0c-1.11,0 -1.33,0.53 -1.33,1.3l0 1.71 2.66 0 -0.35 2.68 -2.31 0 0 7.93c4.48,-1.28 7.75,-5.4 7.75,-10.29l0 0z"/>
 </g>
</svg>
