<?xml version="1.0" encoding="UTF-8"?>
<!DOCTYPE svg PUBLIC "-//W3C//DTD SVG 1.1//EN" "http://www.w3.org/Graphics/SVG/1.1/DTD/svg11.dtd">
<!-- Creator: CorelDRAW 2021 (64-Bit Оценочная версия) -->
<svg xmlns="http://www.w3.org/2000/svg" xml:space="preserve" width="12.9567mm" height="5.1235mm" version="1.1" style="shape-rendering:geometricPrecision; text-rendering:geometricPrecision; image-rendering:optimizeQuality; fill-rule:evenodd; clip-rule:evenodd"
viewBox="0 0 1295.68 512.35"
 xmlns:xlink="http://www.w3.org/1999/xlink"
 xmlns:xodm="http://www.corel.com/coreldraw/odm/2003">
 <defs>
  <style type="text/css">
   <![CDATA[
    .fil0 {fill:white}
   ]]>
  </style>
 </defs>
 <g id="Слой_x0020_1">
  <metadata id="CorelCorpID_0Corel-Layer"/>
  <path class="fil0" d="M1100.06 33.73c-4.01,18.71 -9.09,117.86 -65.8,178.97 -8.72,9.37 -42.61,36.82 -51.73,32.88 -28.22,-12.18 -41,-85.05 -43.9,-122.33 -3.21,-40.57 -4.19,-81.06 10.79,-119.98 -76.44,-18.75 -227.37,47.26 -266.47,96.44 28.27,21.79 58.71,41.35 84.09,66.05 19.42,18.95 33.84,43.6 47.91,67.24 11.05,18.54 32.47,64.92 12.11,73.28 -42.92,17.58 -80.56,31.45 -179.22,31.45 -98.64,0 -136.3,-13.87 -179.22,-31.45 -20.35,-8.36 1.06,-54.74 12.13,-73.28 14.04,-23.64 28.46,-48.29 47.89,-67.24 25.38,-24.7 55.82,-44.26 84.09,-66.05 -39.1,-49.18 -190,-115.19 -266.47,-96.44 14.98,38.92 14,79.41 10.82,119.98 -2.93,37.28 -15.71,110.15 -43.93,122.33 -9.09,3.94 -43.01,-23.51 -51.73,-32.88 -56.71,-61.11 -61.78,-160.26 -65.8,-178.97 -82.6,20.23 -184.85,152.39 -195.61,254.26 187.43,0 236.1,224.36 647.83,224.36 411.73,0 460.43,-224.36 647.85,-224.36 -10.75,-101.87 -113.02,-234.03 -195.62,-254.26z"/>
 </g>
</svg>
