<?xml version="1.0" encoding="UTF-8"?>
<!DOCTYPE svg PUBLIC "-//W3C//DTD SVG 1.1//EN" "http://www.w3.org/Graphics/SVG/1.1/DTD/svg11.dtd">
<!-- Creator: CorelDRAW 2021 (64-Bit Оценочная версия) -->
<svg xmlns="http://www.w3.org/2000/svg" xml:space="preserve" width="5.0695mm" height="5.0696mm" version="1.1" style="shape-rendering:geometricPrecision; text-rendering:geometricPrecision; image-rendering:optimizeQuality; fill-rule:evenodd; clip-rule:evenodd"
viewBox="0 0 24.58 24.58"
 xmlns:xlink="http://www.w3.org/1999/xlink"
 xmlns:xodm="http://www.corel.com/coreldraw/odm/2003">
 <defs>
  <style type="text/css">
   <![CDATA[
    .fil0 {fill:white;fill-rule:nonzero}
   ]]>
  </style>
 </defs>
 <g id="Слой_x0020_1">
  <metadata id="CorelCorpID_0Corel-Layer"/>
  <path class="fil0" d="M14.64 12.29c0,1.3 -1.05,2.35 -2.35,2.35 -1.3,0 -2.35,-1.05 -2.35,-2.35 0,-1.3 1.05,-2.35 2.35,-2.35 1.3,0 2.35,1.05 2.35,2.35zm0 0z"/>
  <path class="fil0" d="M17.79 8.13c-0.11,-0.31 -0.29,-0.58 -0.53,-0.81 -0.23,-0.23 -0.5,-0.41 -0.81,-0.53 -0.25,-0.1 -0.62,-0.21 -1.31,-0.24 -0.74,-0.03 -0.97,-0.04 -2.85,-0.04 -1.88,0 -2.11,0.01 -2.85,0.04 -0.69,0.03 -1.06,0.15 -1.31,0.24 -0.31,0.11 -0.58,0.29 -0.81,0.53 -0.23,0.23 -0.41,0.5 -0.53,0.81 -0.1,0.25 -0.21,0.62 -0.24,1.31 -0.03,0.74 -0.04,0.97 -0.04,2.85 0,1.88 0.01,2.11 0.04,2.85 0.03,0.69 0.15,1.06 0.24,1.31 0.11,0.31 0.29,0.58 0.53,0.81 0.23,0.23 0.5,0.42 0.81,0.53 0.25,0.1 0.62,0.21 1.31,0.24 0.74,0.03 0.97,0.04 2.85,0.04 1.88,0 2.11,-0.01 2.85,-0.04 0.69,-0.03 1.06,-0.15 1.31,-0.24 0.62,-0.24 1.1,-0.72 1.34,-1.34 0.1,-0.25 0.21,-0.62 0.24,-1.31 0.03,-0.74 0.04,-0.97 0.04,-2.85 0,-1.88 -0.01,-2.11 -0.04,-2.85 -0.03,-0.69 -0.15,-1.06 -0.24,-1.31l0 0zm-5.5 7.79c-2,0 -3.62,-1.62 -3.62,-3.62 0,-2 1.62,-3.62 3.62,-3.62 2,0 3.62,1.62 3.62,3.62 0,2 -1.62,3.62 -3.62,3.62zm3.77 -6.54c-0.47,0 -0.85,-0.38 -0.85,-0.85 0,-0.47 0.38,-0.85 0.85,-0.85 0.47,0 0.85,0.38 0.85,0.85 0,0.47 -0.38,0.85 -0.85,0.85zm0 0z"/>
  <path class="fil0" d="M12.29 0c-6.79,0 -12.29,5.5 -12.29,12.29 0,6.79 5.5,12.29 12.29,12.29 6.79,0 12.29,-5.5 12.29,-12.29 0,-6.79 -5.5,-12.29 -12.29,-12.29zm7.01 15.2c-0.03,0.75 -0.15,1.26 -0.33,1.71 -0.37,0.95 -1.12,1.7 -2.06,2.06 -0.45,0.17 -0.96,0.29 -1.71,0.33 -0.75,0.03 -0.99,0.04 -2.91,0.04 -1.92,0 -2.16,-0.01 -2.91,-0.04 -0.75,-0.03 -1.26,-0.15 -1.71,-0.33 -0.47,-0.18 -0.9,-0.45 -1.25,-0.81 -0.36,-0.35 -0.64,-0.78 -0.81,-1.25 -0.17,-0.45 -0.29,-0.96 -0.33,-1.71 -0.03,-0.75 -0.04,-0.99 -0.04,-2.91 0,-1.92 0.01,-2.16 0.04,-2.91 0.03,-0.75 0.15,-1.26 0.33,-1.71 0.18,-0.47 0.45,-0.9 0.81,-1.25 0.35,-0.36 0.78,-0.64 1.25,-0.81 0.45,-0.17 0.96,-0.29 1.71,-0.33 0.75,-0.03 0.99,-0.04 2.91,-0.04 1.92,0 2.16,0.01 2.91,0.04 0.75,0.03 1.26,0.15 1.71,0.33 0.47,0.18 0.9,0.45 1.25,0.81 0.36,0.35 0.64,0.78 0.81,1.25 0.17,0.45 0.29,0.96 0.33,1.71 0.03,0.75 0.04,0.99 0.04,2.91 0,1.92 -0.01,2.16 -0.04,2.91zm0 0z"/>
 </g>
</svg>
