<?xml version="1.0" encoding="UTF-8"?>
<!DOCTYPE svg PUBLIC "-//W3C//DTD SVG 1.1//EN" "http://www.w3.org/Graphics/SVG/1.1/DTD/svg11.dtd">
<!-- Creator: CorelDRAW 2021 (64-Bit Оценочная версия) -->
<svg xmlns="http://www.w3.org/2000/svg" xml:space="preserve" width="29.587mm" height="8.9979mm" version="1.1" style="shape-rendering:geometricPrecision; text-rendering:geometricPrecision; image-rendering:optimizeQuality; fill-rule:evenodd; clip-rule:evenodd"
viewBox="0 0 601.61 182.96"
 xmlns:xlink="http://www.w3.org/1999/xlink"
 xmlns:xodm="http://www.corel.com/coreldraw/odm/2003">
 <defs>
  <style type="text/css">
   <![CDATA[
    .fil0 {fill:white;fill-rule:nonzero}
   ]]>
  </style>
 </defs>
 <g id="Слой_x0020_1">
  <metadata id="CorelCorpID_0Corel-Layer"/>
  <g id="_2763037896016">
   <polygon class="fil0" points="67.19,2.47 138.01,2.47 138.01,29.98 67.19,29.98 "/>
   <path class="fil0" d="M567.96 159.71l-30.11 0c3.18,-4.1 8.45,-21.25 9.9,-37.21l1.45 -15.58 18.76 0 0 52.79zm21.1 0l0 -72.59 -60.3 0 -0.79 18.48c-1.32,30.21 -9.65,49.35 -13.34,54.11l-9.9 0 0 19.8 96.87 0 0 -19.8 -12.55 0z"/>
   <path class="fil0" d="M238.97 87.12c-26.23,0 -47.5,21.27 -47.5,47.5 0,26.23 21.26,47.5 47.5,47.5 26.23,0 47.5,-21.27 47.5,-47.5 0,-26.23 -21.27,-47.5 -47.5,-47.5zm0 21.2c14.5,0 26.3,11.8 26.3,26.3 0,14.5 -11.8,26.3 -26.3,26.3 -14.5,0 -26.3,-11.8 -26.3,-26.3 0,-14.5 11.8,-26.3 26.3,-26.3z"/>
   <path class="fil0" d="M445.46 87.12c-26.23,0 -47.5,21.27 -47.5,47.5 0,26.23 21.27,47.5 47.5,47.5 26.23,0 47.5,-21.27 47.5,-47.5 0,-26.23 -21.27,-47.5 -47.5,-47.5zm0 21.2c14.5,0 26.3,11.8 26.3,26.3 0,14.5 -11.8,26.3 -26.3,26.3 -14.5,0 -26.3,-11.8 -26.3,-26.3 0,-14.5 11.8,-26.3 26.3,-26.3z"/>
   <path class="fil0" d="M316.82 89.6l-1.3 18.54c-3.73,51.38 -11.67,54.29 -19.36,52.97l-0.38 21.2c21.71,3.57 33.38,-6.49 38.92,-55.37l1.99 -17.47 20.4 0 0 72.83 21.17 0 0 -92.7 -61.44 0z"/>
   <polygon class="fil0" points="165,182.95 137.55,182.95 137.55,87.11 165,87.11 "/>
   <polygon class="fil0" points="165.01,87.3 164.28,100.05 137.56,126.42 111.64,152.01 104.7,143.61 94.11,130.73 111.74,113.01 137.56,87.12 "/>
   <polygon class="fil0" points="122.39,125.92 104.7,143.61 94.11,130.73 58.33,87.3 90.38,87.12 111.74,113.01 "/>
   <path class="fil0" d="M165 2.46l0 66.38 -27.44 0 0 -38.86 -69.9 0c-22.64,0 -40.26,19.95 -40.26,42.35 0,18.41 11.6,35.15 28.37,40.45 0.45,0.15 0.9,0.31 1.38,0.43l10.04 12.46 6.21 7.73c-9.44,7.61 -23.76,6.78 -31.56,3.37 -24.62,-10.82 -41.84,-36.62 -41.84,-64.43 0,-36.57 29.94,-69.75 67.19,-69.87l97.8 0z"/>
   <path class="fil0" d="M73.4 133.39c-0.25,2.09 -1.98,5.83 -3.53,8.37 -3.88,6.24 -7.56,10.68 -13.02,16.13 -12.58,12.6 -27.63,21.01 -43.1,25.06l-0.03 -26.72c8.93,-3.37 17.56,-8.86 25.03,-16.35 1.11,-1.11 2.14,-2.14 3.09,-3.12 6.79,-6.97 9.84,-11.3 13.43,-24.03l0.48 0.05 1.16 0.15 0.23 0.28 10.04 12.45 6.22 7.73z"/>
   <path class="fil0" d="M194.97 15.23l7.73 0 0 -11.35 -5.45 0 -0.15 2.44c-0.36,5.5 -1.62,8.3 -2.13,8.91zm-2.59 0l1.43 0c0.55,-0.71 1.98,-3.62 2.3,-9.67l0.13 -2.67 7.5 0 0 12.34 1.81 0 0 3.54 -0.99 0 0 -2.55 -11.2 0 0 2.55 -0.99 0 0 -3.54z"/>
   <polygon class="fil0" points="208.32,2.9 215.68,2.9 215.68,3.89 209.36,3.89 209.36,8.97 215.11,8.97 215.11,9.96 209.36,9.96 209.36,15.23 215.88,15.23 215.88,16.22 208.32,16.22 "/>
   <polygon class="fil0" points="228.57,3.88 220.31,3.88 220.31,16.22 219.26,16.22 219.26,2.9 229.62,2.9 229.62,16.22 228.57,16.22 "/>
   <path class="fil0" d="M235.56 10.7l5.54 0 -2.76 -6.47 -2.78 6.47zm2.38 -7.92l0.86 0 5.81 13.44 -1.12 0 -1.94 -4.53 -6.4 0 -1.94 4.53 -1.07 0 5.81 -13.44z"/>
   <path class="fil0" d="M248.16 3.88l0 5.98c0.74,0.06 1.41,0.1 2.17,0.1 2.42,0 3.67,-1.28 3.67,-3.1 0,-1.73 -1.03,-3.01 -3.54,-3.01 -0.59,0 -1.68,0.02 -2.31,0.04zm-1.05 12.34l0 -13.33c0.74,0 2.49,-0.04 3.26,-0.04 3.69,0 4.74,2.04 4.74,4.02 0,2.07 -1.43,4.07 -4.74,4.07 -0.63,0 -1.45,-0.02 -2.21,-0.08l0 5.35 -1.05 0z"/>
   <polygon class="fil0" points="255.95,2.9 266.86,2.9 266.86,3.89 261.93,3.89 261.93,16.22 260.88,16.22 260.88,3.89 255.95,3.89 "/>
   <path class="fil0" d="M269.45 10.7l5.54 0 -2.76 -6.47 -2.78 6.47zm2.38 -7.92l0.86 0 5.81 13.44 -1.12 0 -1.94 -4.53 -6.4 0 -1.94 4.53 -1.07 0 5.81 -13.44z"/>
   <polygon class="fil0" points="281,2.9 282.07,2.9 287.44,10.21 292.6,2.9 293.61,2.9 293.61,16.22 292.56,16.22 292.56,4.53 287.44,11.73 287.27,11.73 282.05,4.59 282.05,16.22 281,16.22 "/>
   <polygon class="fil0" points="297.83,2.9 305.2,2.9 305.2,3.89 298.88,3.89 298.88,8.97 304.63,8.97 304.63,9.96 298.88,9.96 298.88,15.23 305.39,15.23 305.39,16.22 297.83,16.22 "/>
   <polygon class="fil0" points="318.15,9.92 309.83,9.92 309.83,16.22 308.78,16.22 308.78,2.9 309.83,2.9 309.83,8.93 318.15,8.93 318.15,2.9 319.19,2.9 319.19,16.22 318.15,16.22 "/>
   <polygon class="fil0" points="321.5,2.9 332.41,2.9 332.41,3.89 327.47,3.89 327.47,16.22 326.43,16.22 326.43,3.89 321.5,3.89 "/>
   <polygon class="fil0" points="339.18,2.9 340.25,2.9 345.62,10.21 350.78,2.9 351.79,2.9 351.79,16.22 350.74,16.22 350.74,4.53 345.62,11.73 345.45,11.73 340.23,4.59 340.23,16.22 339.18,16.22 "/>
   <path class="fil0" d="M361.61 15.4c3.26,0 5.58,-2.53 5.58,-5.85 0,-3.37 -2.44,-5.85 -5.58,-5.85 -3.16,0 -5.58,2.47 -5.58,5.85 0,3.33 2.44,5.85 5.58,5.85zm0 -12.68c3.79,0 6.68,2.86 6.68,6.84 0,3.92 -2.9,6.84 -6.68,6.84 -3.79,0 -6.69,-2.86 -6.69,-6.84 0,-3.87 2.84,-6.84 6.69,-6.84z"/>
   <path class="fil0" d="M379.35 3.88l-5.6 0 -0.23 2.51c-0.76,9.05 -2.59,9.98 -4.28,9.83l0.02 -1.05c0.9,0.06 2.67,-0.44 3.31,-9.62l0.19 -2.67 7.64 0 0 13.33 -1.05 0 0 -12.34z"/>
   <path class="fil0" d="M390.23 15.4c3.26,0 5.58,-2.53 5.58,-5.85 0,-3.37 -2.44,-5.85 -5.58,-5.85 -3.16,0 -5.58,2.47 -5.58,5.85 0,3.33 2.44,5.85 5.58,5.85zm0 -12.68c3.79,0 6.68,2.86 6.68,6.84 0,3.92 -2.9,6.84 -6.68,6.84 -3.79,0 -6.69,-2.86 -6.69,-6.84 0,-3.87 2.84,-6.84 6.69,-6.84z"/>
   <path class="fil0" d="M400.11 15.23l7.73 0 0 -11.35 -5.45 0 -0.15 2.44c-0.36,5.5 -1.62,8.3 -2.13,8.91zm-2.59 0l1.43 0c0.55,-0.71 1.98,-3.62 2.3,-9.67l0.13 -2.67 7.5 0 0 12.34 1.81 0 0 3.54 -0.99 0 0 -2.55 -11.2 0 0 2.55 -0.99 0 0 -3.54z"/>
   <path class="fil0" d="M419.47 0.31c0.34,0 0.67,0.23 0.67,0.61 0,0.42 -0.32,0.65 -0.67,0.65 -0.4,0 -0.74,-0.23 -0.74,-0.65 0,-0.38 0.34,-0.61 0.74,-0.61zm-4.46 0c0.34,0 0.69,0.23 0.69,0.61 0,0.42 -0.34,0.65 -0.69,0.65 -0.4,0 -0.73,-0.23 -0.73,-0.65 0,-0.38 0.33,-0.61 0.73,-0.61zm-1.56 2.59l7.37 0 0 0.99 -6.32 0 0 5.09 5.75 0 0 0.99 -5.75 0 0 5.27 6.51 0 0 0.99 -7.56 0 0 -13.33z"/>
   <path class="fil0" d="M433.33 9.26l5.9 6.97 -1.24 0 -5.83 -6.95 5.62 -6.38 1.24 0 -5.69 6.36zm-2.84 -6.36l1.05 0 0 13.33 -1.05 0 0 -13.33zm-7.46 0l1.24 0 5.62 6.38 -5.83 6.95 -1.24 0 5.9 -6.95 -5.7 -6.38z"/>
   <polygon class="fil0" points="451.24,9.92 442.92,9.92 442.92,16.22 441.87,16.22 441.87,2.9 442.92,2.9 442.92,8.93 451.24,8.93 451.24,2.9 452.29,2.9 452.29,16.22 451.24,16.22 "/>
   <path class="fil0" d="M462.11 15.4c3.26,0 5.58,-2.53 5.58,-5.85 0,-3.37 -2.44,-5.85 -5.58,-5.85 -3.16,0 -5.58,2.47 -5.58,5.85 0,3.33 2.44,5.85 5.58,5.85zm0 -12.68c3.79,0 6.68,2.86 6.68,6.84 0,3.92 -2.9,6.84 -6.68,6.84 -3.79,0 -6.69,-2.86 -6.69,-6.84 0,-3.87 2.84,-6.84 6.69,-6.84z"/>
   <path class="fil0" d="M475.08 0c0.4,0.8 1.2,1.35 2.38,1.35 1.09,0 2.04,-0.51 2.3,-1.35l0.99 0c-0.25,1.26 -1.7,2.11 -3.29,2.11 -1.77,0 -3.05,-0.89 -3.37,-2.11l0.99 0zm-3.14 16.22l0 -13.33 1.05 0 0 11.62 8.97 -11.62 0.93 0 0 13.33 -1.05 0 0 -11.62 -8.97 11.62 -0.93 0z"/>
   <polygon class="fil0" points="500.89,3.88 492.63,3.88 492.63,16.22 491.58,16.22 491.58,2.9 501.94,2.9 501.94,16.22 500.89,16.22 "/>
   <path class="fil0" d="M511.76 15.4c3.26,0 5.58,-2.53 5.58,-5.85 0,-3.37 -2.44,-5.85 -5.58,-5.85 -3.16,0 -5.58,2.47 -5.58,5.85 0,3.33 2.44,5.85 5.58,5.85zm0 -12.68c3.79,0 6.69,2.86 6.69,6.84 0,3.92 -2.9,6.84 -6.69,6.84 -3.79,0 -6.68,-2.86 -6.68,-6.84 0,-3.87 2.84,-6.84 6.68,-6.84z"/>
   <path class="fil0" d="M529.51 3.88l-5.6 0 -0.23 2.51c-0.76,9.05 -2.59,9.98 -4.28,9.83l0.02 -1.05c0.89,0.06 2.67,-0.44 3.31,-9.62l0.19 -2.67 7.64 0 0 13.33 -1.05 0 0 -12.34z"/>
   <polygon class="fil0" points="534.78,16.22 534.78,2.9 535.83,2.9 535.83,14.51 544.8,2.9 545.73,2.9 545.73,16.22 544.68,16.22 544.68,4.61 535.71,16.22 "/>
   <polygon class="fil0" points="548.03,2.9 558.94,2.9 558.94,3.89 554.01,3.89 554.01,16.22 552.96,16.22 552.96,3.89 548.03,3.89 "/>
   <polygon class="fil0" points="561.24,16.22 561.24,2.9 562.29,2.9 562.29,14.51 571.26,2.9 572.19,2.9 572.19,16.22 571.15,16.22 571.15,4.61 562.18,16.22 "/>
   <path class="fil0" d="M579.33 9.2l6.57 7.03 -1.35 0 -6.46 -6.95 6.26 -6.38 1.27 0 -6.3 6.3zm-2.91 -6.3l1.05 0 0 13.33 -1.05 0 0 -13.33z"/>
   <polygon class="fil0" points="588.54,16.22 588.54,2.9 589.59,2.9 589.59,14.51 598.56,2.9 599.49,2.9 599.49,16.22 598.44,16.22 598.44,4.61 589.48,16.22 "/>
   <polygon class="fil0" points="194.17,37.64 194.17,24.31 195.22,24.31 195.22,35.93 204.19,24.31 205.12,24.31 205.12,37.64 204.07,37.64 204.07,26.03 195.1,37.64 "/>
   <polygon class="fil0" points="211.9,24.31 222.81,24.31 222.81,25.3 217.87,25.3 217.87,37.64 216.83,37.64 216.83,25.3 211.9,25.3 "/>
   <path class="fil0" d="M230.44 34.63c-0.92,2.04 -1.77,3.01 -3.09,3.01 -0.51,0 -1.1,-0.15 -1.46,-0.44l0.38 -0.89c0.36,0.25 0.69,0.36 1.07,0.36 0.88,0 1.45,-0.76 1.88,-1.67l0.25 -0.53 -6.15 -10.15 1.18 0 5.48 9.1 4.04 -9.1 1.07 0 -4.65 10.32z"/>
   <path class="fil0" d="M238.57 25.3l0 5.98c0.74,0.06 1.41,0.1 2.17,0.1 2.42,0 3.67,-1.27 3.67,-3.1 0,-1.73 -1.03,-3.01 -3.54,-3.01 -0.59,0 -1.68,0.02 -2.3,0.04zm-1.05 12.34l0 -13.33c0.74,0 2.49,-0.04 3.26,-0.04 3.69,0 4.74,2.04 4.74,4.02 0,2.07 -1.43,4.07 -4.74,4.07 -0.63,0 -1.45,-0.02 -2.21,-0.08l0 5.35 -1.05 0z"/>
   <polygon class="fil0" points="248.66,37.64 248.66,24.31 249.7,24.31 249.7,35.93 258.67,24.31 259.61,24.31 259.61,37.64 258.56,37.64 258.56,26.03 249.59,37.64 "/>
   <path class="fil0" d="M262.55 35.85l0.59 -0.71c0.9,1.07 2.44,1.68 3.54,1.68 2.07,0 3.48,-1.12 3.48,-3.01 0,-1.53 -1.08,-2.49 -2.84,-2.49l-1.66 0 0 -0.99 1.54 0c1.22,0 2.44,-1.12 2.44,-2.67 0,-1.69 -1.22,-2.53 -2.8,-2.53 -1.49,0 -2.48,0.57 -3.31,1.53l-0.61 -0.67c0.89,-1.14 2.36,-1.85 4,-1.85 2.27,0 3.77,1.26 3.77,3.45 0,1.2 -0.69,2.53 -2.02,3.14l0 0.06c1.64,0.23 2.53,1.6 2.53,3.12 0,2.46 -2,3.9 -4.46,3.9 -1.77,0 -3.5,-0.89 -4.21,-1.96z"/>
   <polygon class="fil0" points="274.74,24.31 275.81,24.31 281.18,31.62 286.34,24.31 287.34,24.31 287.34,37.64 286.3,37.64 286.3,25.95 281.18,33.15 281,33.15 275.79,26.01 275.79,37.64 274.74,37.64 "/>
   <path class="fil0" d="M293.28 32.12l5.54 0 -2.76 -6.47 -2.78 6.47zm2.38 -7.92l0.86 0 5.81 13.44 -1.12 0 -1.94 -4.53 -6.4 0 -1.94 4.53 -1.07 0 5.81 -13.44z"/>
   <path class="fil0" d="M315.75 31.43l0 -6.13c-0.53,-0.02 -1.37,-0.06 -2.09,-0.06 -2.49,0 -3.69,1.45 -3.69,3.22 0,1.58 1.33,2.76 2.68,2.97l3.1 0zm0 0.99l-2.97 0 -3.79 5.22 -1.2 0 3.96 -5.37c-1.49,-0.5 -2.9,-1.83 -2.9,-3.75 0,-2.36 1.6,-4.27 4.99,-4.27 0.91,0 2.17,0.06 2.95,0.06l0 13.33 -1.05 0 0 -5.22z"/>
   <polygon class="fil0" points="321.02,24.31 322.09,24.31 327.46,31.62 332.62,24.31 333.63,24.31 333.63,37.64 332.58,37.64 332.58,25.95 327.46,33.15 327.29,33.15 322.07,26.01 322.07,37.64 321.02,37.64 "/>
   <path class="fil0" d="M339.57 32.12l5.54 0 -2.76 -6.47 -2.78 6.47zm2.38 -7.92l0.86 0 5.81 13.44 -1.12 0 -1.94 -4.53 -6.4 0 -1.94 4.53 -1.07 0 5.81 -13.44z"/>
   <path class="fil0" d="M359.31 25.3l-5.6 0 -0.23 2.51c-0.76,9.04 -2.59,9.98 -4.28,9.83l0.02 -1.05c0.9,0.06 2.67,-0.44 3.31,-9.62l0.19 -2.67 7.64 0 0 13.33 -1.05 0 0 -12.34z"/>
   <path class="fil0" d="M370.18 36.82c3.26,0 5.58,-2.53 5.58,-5.85 0,-3.37 -2.44,-5.85 -5.58,-5.85 -3.16,0 -5.58,2.48 -5.58,5.85 0,3.33 2.44,5.85 5.58,5.85zm0 -12.68c3.79,0 6.68,2.85 6.68,6.84 0,3.92 -2.9,6.84 -6.68,6.84 -3.79,0 -6.69,-2.86 -6.69,-6.84 0,-3.87 2.84,-6.84 6.69,-6.84z"/>
   <polygon class="fil0" points="379.64,32 384,32 384,32.94 379.64,32.94 "/>
   <polygon class="fil0" points="397.1,31.34 388.78,31.34 388.78,37.64 387.73,37.64 387.73,24.31 388.78,24.31 388.78,30.35 397.1,30.35 397.1,24.31 398.15,24.31 398.15,37.64 397.1,37.64 "/>
   <polygon class="fil0" points="402.37,24.31 409.74,24.31 409.74,25.3 403.42,25.3 403.42,30.39 409.17,30.39 409.17,31.38 403.42,31.38 403.42,36.65 409.93,36.65 409.93,37.64 402.37,37.64 "/>
   <polygon class="fil0" points="422.69,31.34 414.37,31.34 414.37,37.64 413.32,37.64 413.32,24.31 414.37,24.31 414.37,30.35 422.69,30.35 422.69,24.31 423.73,24.31 423.73,37.64 422.69,37.64 "/>
   <polygon class="fil0" points="427.96,24.31 435.33,24.31 435.33,25.3 429.01,25.3 429.01,30.39 434.76,30.39 434.76,31.38 429.01,31.38 429.01,36.65 435.52,36.65 435.52,37.64 427.96,37.64 "/>
   <polygon class="fil0" points="438.91,24.31 439.95,24.31 439.95,36.65 448.12,36.65 448.12,24.31 449.17,24.31 449.17,36.65 450.98,36.65 450.98,40.19 449.99,40.19 449.99,37.64 438.91,37.64 "/>
   <path class="fil0" d="M456.65 30.62l6.57 7.03 -1.35 0 -6.46 -6.95 6.26 -6.38 1.27 0 -6.3 6.3zm-2.91 -6.3l1.05 0 0 13.33 -1.05 0 0 -13.33z"/>
   <path class="fil0" d="M470.62 36.82c3.26,0 5.58,-2.53 5.58,-5.85 0,-3.37 -2.44,-5.85 -5.58,-5.85 -3.16,0 -5.58,2.48 -5.58,5.85 0,3.33 2.44,5.85 5.58,5.85zm0 -12.68c3.79,0 6.69,2.85 6.69,6.84 0,3.92 -2.9,6.84 -6.69,6.84 -3.79,0 -6.68,-2.86 -6.68,-6.84 0,-3.87 2.84,-6.84 6.68,-6.84z"/>
   <polygon class="fil0" points="480.45,24.31 487.8,24.31 487.8,25.3 481.49,25.3 481.49,37.64 480.45,37.64 "/>
   <path class="fil0" d="M495.09 36.82c3.26,0 5.58,-2.53 5.58,-5.85 0,-3.37 -2.44,-5.85 -5.58,-5.85 -3.16,0 -5.58,2.48 -5.58,5.85 0,3.33 2.44,5.85 5.58,5.85zm0 -12.68c3.79,0 6.68,2.85 6.68,6.84 0,3.92 -2.9,6.84 -6.68,6.84 -3.79,0 -6.69,-2.86 -6.69,-6.84 0,-3.87 2.84,-6.84 6.69,-6.84z"/>
   <path class="fil0" d="M195.88 53.54l5.54 0 -2.76 -6.47 -2.78 6.47zm2.38 -7.92l0.86 0 5.81 13.44 -1.12 0 -1.94 -4.53 -6.4 0 -1.94 4.53 -1.07 0 5.81 -13.44z"/>
   <path class="fil0" d="M208.49 52.72l0 5.33c0.53,0.02 1.64,0.08 2.47,0.08 2.29,0 3.66,-0.93 3.66,-2.86 0,-1.64 -1.29,-2.55 -3.6,-2.55l-2.53 0zm0 -6l0 5.07 2.59 0c1.66,0 3.03,-0.97 3.03,-2.61 0,-1.62 -1.01,-2.51 -3.2,-2.51 -0.82,0 -1.88,0.04 -2.42,0.06zm-1.05 -0.97c0.74,-0.02 2.34,-0.08 3.5,-0.08 3.18,0 4.21,1.45 4.21,3.29 0,1.77 -1.2,2.8 -2.59,3.12l0 0.04c1.92,0.23 3.1,1.33 3.1,3.2 0,2.67 -2.04,3.79 -4.74,3.79 -1.14,0 -2.7,-0.04 -3.49,-0.08l0 -13.29z"/>
   <polygon class="fil0" points="217.26,45.73 228.17,45.73 228.17,46.72 223.24,46.72 223.24,59.06 222.2,59.06 222.2,46.72 217.26,46.72 "/>
   <path class="fil0" d="M235.43 58.24c3.26,0 5.58,-2.53 5.58,-5.85 0,-3.37 -2.44,-5.85 -5.58,-5.85 -3.16,0 -5.58,2.47 -5.58,5.85 0,3.33 2.44,5.85 5.58,5.85zm0 -12.68c3.79,0 6.68,2.86 6.68,6.84 0,3.92 -2.89,6.84 -6.68,6.84 -3.79,0 -6.68,-2.86 -6.68,-6.84 0,-3.87 2.84,-6.84 6.68,-6.84z"/>
   <polygon class="fil0" points="254.62,52.76 246.3,52.76 246.3,59.06 245.25,59.06 245.25,45.73 246.3,45.73 246.3,51.77 254.62,51.77 254.62,45.73 255.67,45.73 255.67,59.06 254.62,59.06 "/>
   <path class="fil0" d="M265.49 58.24c3.26,0 5.58,-2.53 5.58,-5.85 0,-3.37 -2.44,-5.85 -5.58,-5.85 -3.16,0 -5.58,2.47 -5.58,5.85 0,3.33 2.44,5.85 5.58,5.85zm0 -12.68c3.79,0 6.68,2.86 6.68,6.84 0,3.92 -2.9,6.84 -6.68,6.84 -3.79,0 -6.68,-2.86 -6.68,-6.84 0,-3.87 2.84,-6.84 6.68,-6.84z"/>
   <polygon class="fil0" points="275.31,45.73 276.38,45.73 281.75,53.04 286.91,45.73 287.92,45.73 287.92,59.06 286.87,59.06 286.87,47.37 281.75,54.56 281.58,54.56 276.36,47.43 276.36,59.06 275.31,59.06 "/>
   <polygon class="fil0" points="301.51,52.76 293.19,52.76 293.19,59.06 292.14,59.06 292.14,45.73 293.19,45.73 293.19,51.77 301.51,51.77 301.51,45.73 302.56,45.73 302.56,59.06 301.51,59.06 "/>
   <path class="fil0" d="M312.38 58.24c3.26,0 5.58,-2.53 5.58,-5.85 0,-3.37 -2.44,-5.85 -5.58,-5.85 -3.16,0 -5.58,2.47 -5.58,5.85 0,3.33 2.44,5.85 5.58,5.85zm0 -12.68c3.79,0 6.68,2.86 6.68,6.84 0,3.92 -2.9,6.84 -6.68,6.84 -3.79,0 -6.68,-2.86 -6.68,-6.84 0,-3.87 2.84,-6.84 6.68,-6.84z"/>
   <polygon class="fil0" points="322.2,45.73 329.55,45.73 329.55,46.72 323.25,46.72 323.25,59.06 322.2,59.06 "/>
   <path class="fil0" d="M336.84 58.24c3.26,0 5.58,-2.53 5.58,-5.85 0,-3.37 -2.44,-5.85 -5.58,-5.85 -3.16,0 -5.58,2.47 -5.58,5.85 0,3.33 2.44,5.85 5.58,5.85zm0 -12.68c3.79,0 6.69,2.86 6.69,6.84 0,3.92 -2.9,6.84 -6.69,6.84 -3.79,0 -6.68,-2.86 -6.68,-6.84 0,-3.87 2.84,-6.84 6.68,-6.84z"/>
   <path class="fil0" d="M356.74 58.24c3.26,0 5.58,-2.53 5.58,-5.85 0,-3.37 -2.44,-5.85 -5.58,-5.85 -3.16,0 -5.58,2.47 -5.58,5.85 0,3.33 2.44,5.85 5.58,5.85zm0 -12.68c3.79,0 6.68,2.86 6.68,6.84 0,3.92 -2.9,6.84 -6.68,6.84 -3.79,0 -6.69,-2.86 -6.69,-6.84 0,-3.87 2.84,-6.84 6.69,-6.84z"/>
   <path class="fil0" d="M369.47 52.03l6.57 7.03 -1.35 0 -6.46 -6.95 6.26 -6.38 1.27 0 -6.3 6.3zm-2.91 -6.3l1.05 0 0 13.33 -1.05 0 0 -13.33z"/>
   <path class="fil0" d="M379.74 46.72l0 5.98c0.74,0.06 1.41,0.1 2.17,0.1 2.42,0 3.68,-1.28 3.68,-3.1 0,-1.73 -1.03,-3.01 -3.54,-3.01 -0.59,0 -1.68,0.02 -2.3,0.04zm-1.05 12.34l0 -13.33c0.74,0 2.49,-0.04 3.26,-0.04 3.69,0 4.74,2.04 4.74,4.02 0,2.07 -1.43,4.07 -4.74,4.07 -0.63,0 -1.45,-0.02 -2.21,-0.08l0 5.35 -1.05 0z"/>
   <path class="fil0" d="M394.6 56.05c-0.91,2.04 -1.77,3.01 -3.08,3.01 -0.51,0 -1.1,-0.15 -1.47,-0.44l0.38 -0.89c0.36,0.25 0.69,0.36 1.07,0.36 0.88,0 1.45,-0.76 1.88,-1.68l0.25 -0.53 -6.15 -10.15 1.18 0 5.48 9.1 4.04 -9.1 1.07 0 -4.65 10.32z"/>
   <polygon class="fil0" points="401.69,45.73 409.04,45.73 409.04,46.72 402.73,46.72 402.73,59.06 401.69,59.06 "/>
   <path class="fil0" d="M411.22 53.54l5.54 0 -2.76 -6.47 -2.78 6.47zm2.38 -7.92l0.86 0 5.81 13.44 -1.12 0 -1.94 -4.53 -6.4 0 -1.94 4.53 -1.07 0 5.81 -13.44z"/>
  </g>
 </g>
</svg>
