<?xml version="1.0" encoding="UTF-8"?>
<!DOCTYPE svg PUBLIC "-//W3C//DTD SVG 1.1//EN" "http://www.w3.org/Graphics/SVG/1.1/DTD/svg11.dtd">
<!-- Creator: CorelDRAW 2021 (64-Bit Оценочная версия) -->
<svg xmlns="http://www.w3.org/2000/svg" xml:space="preserve" width="11.4557mm" height="6.468mm" version="1.1" style="shape-rendering:geometricPrecision; text-rendering:geometricPrecision; image-rendering:optimizeQuality; fill-rule:evenodd; clip-rule:evenodd"
viewBox="0 0 90.19 50.92"
 xmlns:xlink="http://www.w3.org/1999/xlink"
 xmlns:xodm="http://www.corel.com/coreldraw/odm/2003">
 <defs>
  <style type="text/css">
   <![CDATA[
    .fil0 {fill:white;fill-rule:nonzero}
   ]]>
  </style>
 </defs>
 <g id="Слой_x0020_1">
  <metadata id="CorelCorpID_0Corel-Layer"/>
  <g id="_2763053206544">
   <polygon class="fil0" points="4.77,44.48 1.13,44.48 1.13,50.86 1.77,50.86 1.77,45.07 4.77,45.07 "/>
   <path class="fil0" d="M6.84 44.48l-2.37 6.38 0.66 0 0.67 -1.85 2.78 0 0.68 1.85 0.67 0 -2.37 -6.38 -0.73 0zm1.53 3.94l-2.35 0 0.65 -1.76 0.53 -1.46 0.53 1.46 0.65 1.76z"/>
   <path class="fil0" d="M13 44.48l-2 0 0 6.37 0.64 0 0 -2.42 1.37 0c0.77,0 1.34,-0.17 1.72,-0.52 0.37,-0.35 0.56,-0.83 0.56,-1.45 0,-0.63 -0.18,-1.12 -0.55,-1.46 -0.37,-0.34 -0.94,-0.51 -1.72,-0.51zm1.23 3.01c-0.26,0.24 -0.67,0.36 -1.23,0.36l-1.37 0 0 -2.79 1.37 0c0.57,0 0.98,0.12 1.24,0.36 0.25,0.24 0.38,0.58 0.38,1.04 0,0.46 -0.13,0.8 -0.39,1.04z"/>
   <polygon class="fil0" points="19.28,48.34 17.26,44.48 16.41,44.48 16.41,50.86 17.04,50.86 17.04,45.24 17.45,46.12 18.96,48.99 19.59,48.99 21.1,46.12 21.51,45.24 21.51,50.86 22.14,50.86 22.14,44.48 21.31,44.48 "/>
   <path class="fil0" d="M27.96 50.13c0.23,-0.26 0.42,-0.56 0.55,-0.93 0.13,-0.36 0.2,-0.78 0.2,-1.24l0 -0.58c0,-0.46 -0.07,-0.88 -0.2,-1.24 -0.13,-0.37 -0.31,-0.68 -0.55,-0.93 -0.24,-0.26 -0.52,-0.45 -0.84,-0.58 -0.32,-0.13 -0.67,-0.2 -1.06,-0.2 -0.38,0 -0.73,0.07 -1.06,0.2 -0.32,0.14 -0.6,0.33 -0.83,0.59 -0.23,0.26 -0.42,0.56 -0.55,0.93 -0.13,0.36 -0.2,0.78 -0.2,1.24l0 0.58c0,0.47 0.07,0.88 0.2,1.25 0.13,0.36 0.31,0.67 0.55,0.93 0.24,0.26 0.52,0.45 0.84,0.58 0.32,0.13 0.67,0.2 1.05,0.2l0.01 0c0.38,0 0.73,-0.07 1.05,-0.2 0.32,-0.14 0.6,-0.33 0.83,-0.59zm-1.89 0.19c-0.28,0 -0.54,-0.05 -0.78,-0.16 -0.24,-0.11 -0.45,-0.26 -0.63,-0.46 -0.18,-0.2 -0.32,-0.45 -0.42,-0.74 -0.1,-0.29 -0.15,-0.63 -0.15,-1l0 -0.58c0,-0.38 0.05,-0.71 0.15,-1.01 0.1,-0.29 0.24,-0.54 0.41,-0.74 0.18,-0.2 0.38,-0.35 0.63,-0.46 0.24,-0.1 0.51,-0.16 0.79,-0.16 0.28,0 0.54,0.05 0.78,0.16 0.24,0.11 0.45,0.26 0.63,0.46 0.18,0.2 0.32,0.45 0.42,0.74 0.1,0.29 0.15,0.63 0.15,1l0 0.58c0,0.38 -0.05,0.71 -0.15,1.01 -0.1,0.3 -0.24,0.54 -0.41,0.74 -0.18,0.2 -0.39,0.35 -0.63,0.46 -0.24,0.1 -0.51,0.15 -0.79,0.15z"/>
   <polygon class="fil0" points="34.18,47.29 30.63,47.29 30.63,44.48 29.99,44.48 29.99,50.86 30.63,50.86 30.63,47.87 34.18,47.87 34.18,50.86 34.82,50.86 34.82,44.48 34.18,44.48 "/>
   <polygon class="fil0" points="37.5,49.22 36.97,50.18 36.97,44.48 36.33,44.48 36.33,50.86 37.21,50.86 40,46.12 40.53,45.16 40.53,50.86 41.16,50.86 41.16,44.48 40.29,44.48 "/>
   <path class="fil0" d="M43.03 44.99c-0.37,0.34 -0.56,0.8 -0.56,1.38 0,0.45 0.11,0.83 0.33,1.13 0.22,0.31 0.56,0.52 1.02,0.64l-1.53 2.71 0.69 0 1.46 -2.61c0.05,0.01 0.1,0.01 0.15,0.01l0.16 0 1.37 0 0 2.61 0.64 0 0 -6.38 -2 0c-0.78,0 -1.35,0.17 -1.72,0.51zm3.09 2.68l-1.37 0c-0.56,0 -0.98,-0.12 -1.23,-0.35 -0.26,-0.23 -0.39,-0.55 -0.39,-0.95 0,-0.4 0.13,-0.72 0.39,-0.95 0.26,-0.23 0.67,-0.35 1.23,-0.35l1.37 0 0 2.6z"/>
   <path class="fil0" d="M52.44 44.48l-2.37 6.38 0.66 0 0.67 -1.85 2.78 0 0.68 1.85 0.67 0 -2.37 -6.38 -0.73 0zm1.53 3.94l-2.35 0 0.65 -1.76 0.53 -1.46 0.53 1.46 0.65 1.76z"/>
   <path class="fil0" d="M58.6 44.48l-2 0 0 6.37 0.64 0 0 -2.42 1.37 0c0.77,0 1.34,-0.17 1.72,-0.52 0.37,-0.35 0.56,-0.83 0.56,-1.45 0,-0.63 -0.18,-1.12 -0.55,-1.46 -0.37,-0.34 -0.94,-0.51 -1.72,-0.51zm1.23 3.01c-0.26,0.24 -0.67,0.36 -1.23,0.36l-1.37 0 0 -2.79 1.37 0c0.57,0 0.98,0.12 1.24,0.36 0.26,0.24 0.38,0.58 0.38,1.04 0,0.46 -0.13,0.8 -0.39,1.04z"/>
   <polygon class="fil0" points="66.47,44.48 65.71,44.48 63.65,47.29 62.65,47.29 62.65,44.48 62.01,44.48 62.01,50.86 62.65,50.86 62.65,47.87 63.66,47.87 65.87,50.86 66.65,50.86 64.19,47.57 "/>
   <polygon class="fil0" points="67.38,45.07 69.48,45.07 69.48,50.86 70.11,50.86 70.11,45.07 72.21,45.07 72.21,44.48 67.38,44.48 "/>
   <polygon class="fil0" points="74.43,49.22 73.91,50.18 73.91,44.48 73.27,44.48 73.27,50.86 74.14,50.86 76.93,46.12 77.47,45.16 77.47,50.86 78.09,50.86 78.09,44.48 77.22,44.48 "/>
   <polygon class="fil0" points="84.08,44.48 83.31,44.48 81.25,47.29 80.25,47.29 80.25,44.48 79.61,44.48 79.61,50.86 80.25,50.86 80.25,47.87 81.26,47.87 83.47,50.86 84.26,50.86 81.79,47.57 "/>
   <polygon class="fil0" points="86.53,49.22 86,50.18 86,44.48 85.36,44.48 85.36,50.86 86.24,50.86 89.02,46.12 89.56,45.16 89.56,50.86 90.19,50.86 90.19,44.48 89.31,44.48 "/>
   <path class="fil0" d="M11.3 12.24l-1.72 0c-4.36,0 -7.51,2.23 -7.51,6.06 0,2.97 1.6,4.84 4.16,5.76l-2.55 3.36c-0.06,0.07 -0.11,0.13 -0.17,0.2 -0.08,0.08 -0.15,0.17 -0.22,0.26 -0.25,0.27 -0.5,0.48 -0.77,0.65 -0.47,0.24 -0.94,0.2 -1.34,0.11 -0.58,-0.12 -1.02,-0.34 -1.14,0.03 -0.21,0.66 0.48,2.02 0.89,2.63 0.25,0.37 0.74,0.6 1.4,0.6 1.95,0 3.3,-0.43 5.6,-4.11 0.03,-0.04 0.05,-0.08 0.08,-0.12 0.09,-0.14 0.18,-0.29 0.27,-0.45l1.41 -2.06 1.09 0.32c1.17,0.34 1.97,1.41 1.97,2.62l0 3.39c3.06,0 3.53,0 3.53,-1.78l0 -12.56c0,-3.53 -1.37,-4.9 -4.99,-4.9zm1.45 10.31c0,0.22 -0.23,0.36 -0.42,0.25 -0.48,-0.26 -1.38,-0.61 -2.79,-0.61 -2.25,0 -3.77,-1.37 -3.77,-3.42 0,-2.38 1.9,-3.56 4.25,-3.56l0.51 0c1.57,0 2.23,0.65 2.23,2.14l0 5.2z"/>
   <path class="fil0" d="M81.43 15.44l2.73 0c1.78,0 2.49,0.68 2.49,2.38l0 13.66c3.06,0 3.53,0 3.53,-1.78l0 -12.27c0,-3.74 -1.16,-5.2 -5.05,-5.2l-6.31 0c-0.55,0 -1.25,-0.06 -1.91,-0.08 -0.25,-0.01 -0.47,0.15 -0.55,0.39 -0.21,0.72 -0.89,2.57 -0.41,3.06 0.35,0.35 0.87,-0.25 1.96,-0.25 0.03,0.06 0.04,0.1 0.04,0.1 0,0 -0.16,4.83 -1.47,10.03 -0.04,0.14 -0.08,0.28 -0.12,0.43l-0.31 0.81 -0.1 0.25c-0.44,1.25 -1.02,1.84 -1.78,1.76 -0.66,-0.07 -1.02,-0.76 -1.24,-0.5 -0.44,0.52 -0.43,2.02 -0.38,2.77 0.01,0.25 0.2,0.43 0.44,0.5 0.03,0.01 0.06,0.01 0.09,0.02 1.11,0.31 1.98,0.15 2.45,0.15 0.15,0 0.28,-0.02 0.4,-0.06 2.04,-0.3 3.33,-1.85 3.88,-4.72 1.02,-5.32 1.62,-11.43 1.62,-11.43z"/>
   <path class="fil0" d="M53.59 31.48c0.87,0 -0.01,-0.45 0.7,-1.68 0.65,-1.08 2.05,-2.99 4.52,-2.99 2.4,0 4.02,2.03 4.78,3.1 0.59,1.14 -0.2,1.56 0.64,1.56l0.08 0 1.41 0 2.59 0c-3.89,-11.81 -7.54,-19.61 -7.54,-19.61 -0.25,-0.51 -4.77,0 -4.15,0.98 0.49,0.85 -0.36,2.16 -0.84,3.11 -2.38,4.57 -4.24,9.61 -6.17,15.52l2.49 0 1.49 0zm2.34 -7.21c1.28,-3.59 2.39,-6.35 3.17,-7.93 0,0 1.27,2.62 3.15,8.25 0.06,0.19 -0.15,0.36 -0.32,0.24 -0.71,-0.52 -1.77,-1.05 -3.11,-1.05 -1.05,0 -1.91,0.33 -2.58,0.74 -0.17,0.1 -0.37,-0.07 -0.3,-0.26z"/>
   <path class="fil0" d="M40.42 19.24l0 12.24c3.09,0 3.36,0 3.36,-2.02l0 -17.23c-1.63,0.06 -3.33,0.27 -4.78,0.95 -1.57,4.07 -3.15,7.84 -5.38,12.24 -2.11,-4.16 -4.13,-9.15 -5.58,-13.19 -1.51,0.09 -3.3,0.33 -4.63,0.92l0 18.32 3.33 0 0 -12.21c0,-0.26 0.35,-0.32 0.44,-0.08 1.42,3.62 3.06,7.21 4.72,10.46 1.07,-0.03 2.38,-0.21 3.42,-0.62 1.69,-3.12 3.24,-6.38 4.66,-9.86 0.1,-0.23 0.44,-0.17 0.44,0.08z"/>
   <path class="fil0" d="M66.35 0.54c-0.06,0.3 -0.15,1.89 -1.05,2.87 -0.14,0.15 -0.68,0.59 -0.83,0.53 -0.45,-0.2 -0.66,-1.37 -0.7,-1.96 -0.05,-0.65 -0.07,-1.3 0.17,-1.92 -1.23,-0.3 -3.65,0.76 -4.27,1.55 0.45,0.35 0.94,0.66 1.35,1.06 0.31,0.3 0.54,0.7 0.77,1.08 0.18,0.3 0.52,1.04 0.19,1.18 -0.69,0.28 -1.29,0.5 -2.88,0.5 -1.58,0 -2.19,-0.22 -2.88,-0.5 -0.33,-0.13 0.02,-0.88 0.19,-1.18 0.23,-0.38 0.46,-0.77 0.77,-1.08 0.41,-0.4 0.9,-0.71 1.35,-1.06 -0.63,-0.79 -3.05,-1.85 -4.27,-1.55 0.24,0.62 0.22,1.27 0.17,1.92 -0.05,0.6 -0.25,1.77 -0.7,1.96 -0.15,0.06 -0.69,-0.38 -0.83,-0.53 -0.91,-0.98 -0.99,-2.57 -1.06,-2.87 -1.33,0.33 -2.97,2.45 -3.14,4.08 3.01,0 3.79,3.6 10.39,3.6 6.61,0 7.39,-3.6 10.39,-3.6 -0.17,-1.63 -1.81,-3.75 -3.14,-4.08z"/>
  </g>
 </g>
</svg>
