<?xml version="1.0" encoding="UTF-8"?>
<!DOCTYPE svg PUBLIC "-//W3C//DTD SVG 1.1//EN" "http://www.w3.org/Graphics/SVG/1.1/DTD/svg11.dtd">
<!-- Creator: CorelDRAW 2021 (64-Bit Оценочная версия) -->
<svg xmlns="http://www.w3.org/2000/svg" xml:space="preserve" width="15.3754mm" height="15.3766mm" version="1.1" style="shape-rendering:geometricPrecision; text-rendering:geometricPrecision; image-rendering:optimizeQuality; fill-rule:evenodd; clip-rule:evenodd"
viewBox="0 0 197.13 197.15"
 xmlns:xlink="http://www.w3.org/1999/xlink"
 xmlns:xodm="http://www.corel.com/coreldraw/odm/2003">
 <defs>
  <style type="text/css">
   <![CDATA[
    .fil0 {fill:white;fill-rule:nonzero}
   ]]>
  </style>
 </defs>
 <g id="Слой_x0020_1">
  <metadata id="CorelCorpID_0Corel-Layer"/>
  <g id="_1835541521632">
   <path class="fil0" d="M46.21 38.16c0,-3.23 -2.63,-5.86 -5.86,-5.86l-12.43 0c-3.23,0 -5.86,2.63 -5.86,5.86l0 12.43c0,3.23 2.63,5.86 5.86,5.86l12.43 0c3.23,0 5.86,-2.63 5.86,-5.86l0 -12.43 0 0zm-5.78 12.43c0,0.05 -0.04,0.09 -0.09,0.09l-12.43 0c-0.05,0 -0.09,-0.04 -0.09,-0.09l0 -12.43c0,-0.05 0.04,-0.09 0.09,-0.09l12.43 0c0.05,0 0.09,0.04 0.09,0.09l0 12.43 -0 0z"/>
   <path class="fil0" d="M77.12 38.16c0,-3.23 -2.63,-5.86 -5.86,-5.86l-12.43 0c-3.23,0 -5.86,2.63 -5.86,5.86l0 12.43c0,3.23 2.63,5.86 5.86,5.86l12.43 0c3.23,0 5.86,-2.63 5.86,-5.86l-0 -12.43zm-5.77 12.43c0,0.05 -0.04,0.09 -0.09,0.09l-12.43 0c-0.05,0 -0.09,-0.04 -0.09,-0.09l0 -12.43c0,-0.05 0.04,-0.09 0.09,-0.09l12.43 0c0.05,0 0.09,0.04 0.09,0.09l0 12.43z"/>
   <path class="fil0" d="M46.21 70.1c0,-3.23 -2.63,-5.86 -5.86,-5.86l-12.43 0c-3.23,0 -5.86,2.63 -5.86,5.86l0 12.43c0,3.23 2.63,5.86 5.86,5.86l12.43 0c3.23,0 5.86,-2.63 5.86,-5.86l0 -12.43 0 0zm-5.78 12.43c0,0.05 -0.04,0.09 -0.09,0.09l-12.43 0c-0.05,0 -0.09,-0.04 -0.09,-0.09l0 -12.43c0,-0.05 0.04,-0.09 0.09,-0.09l12.43 0c0.05,0 0.09,0.04 0.09,0.09l0 12.43 -0 0z"/>
   <path class="fil0" d="M77.12 70.1c0,-3.23 -2.63,-5.86 -5.86,-5.86l-12.43 0c-3.23,0 -5.86,2.63 -5.86,5.86l0 12.43c0,3.23 2.63,5.86 5.86,5.86l12.43 0c3.23,0 5.86,-2.63 5.86,-5.86l-0 -12.43zm-5.77 12.43c0,0.05 -0.04,0.09 -0.09,0.09l-12.43 0c-0.05,0 -0.09,-0.04 -0.09,-0.09l0 -12.43c0,-0.05 0.04,-0.09 0.09,-0.09l12.43 0c0.05,0 0.09,0.04 0.09,0.09l0 12.43z"/>
   <path class="fil0" d="M40.35 96.18l-12.43 0c-3.23,0 -5.86,2.63 -5.86,5.86l0 12.43c0,3.23 2.63,5.86 5.86,5.86l12.43 0c3.23,0 5.86,-2.63 5.86,-5.86l0 -12.43c0,-3.23 -2.63,-5.86 -5.86,-5.86l0 0zm0.09 18.29c0,0.05 -0.04,0.09 -0.09,0.09l-12.43 0c-0.05,0 -0.09,-0.04 -0.09,-0.09l0 -12.43c0,-0.05 0.04,-0.09 0.09,-0.09l12.43 0c0.05,0 0.09,0.04 0.09,0.09l0 12.43 -0 0z"/>
   <path class="fil0" d="M71.26 96.18l-12.43 0c-3.23,0 -5.86,2.63 -5.86,5.86l0 12.43c0,3.23 2.63,5.86 5.86,5.86l12.43 0c3.23,0 5.86,-2.63 5.86,-5.86l0 -12.43c0,-3.23 -2.63,-5.86 -5.86,-5.86l0 0zm0.09 18.29c0,0.05 -0.04,0.09 -0.09,0.09l-12.43 0c-0.05,0 -0.09,-0.04 -0.09,-0.09l0 -12.43c0,-0.05 0.04,-0.09 0.09,-0.09l12.43 0c0.05,0 0.09,0.04 0.09,0.09l0 12.43z"/>
   <path class="fil0" d="M187.95 178.78l-4.28 0 0 -24.4c0,-9.72 -6.51,-18.42 -15.84,-21.16l-17.49 -5.13c-0.49,-0.46 -1.06,-0.84 -1.68,-1.12l-3.63 -1.62c-1.03,-0.46 -2.12,-0.66 -3.21,-0.63l0 -8.14c5.75,-4.19 9.75,-10.66 10.62,-18.11 2.85,-0.7 4.96,-3.28 4.96,-6.34l0 -7.87 0 -15.11c0,-5.31 -4.24,-9.64 -9.5,-9.8 -0.28,-5.15 -4.57,-9.26 -9.79,-9.26l-23.84 0c-2.2,0 -4.3,0.38 -6.27,1.08 0.02,-0.19 0.03,-0.38 0.03,-0.57l0 -12.43c0,-3.23 -2.63,-5.86 -5.86,-5.86l-12.43 0c-3.23,0 -5.86,2.63 -5.86,5.86l0 12.43c0,3.23 2.63,5.86 5.86,5.86l10.44 0c-1.94,2.2 -3.38,4.86 -4.13,7.79l-6.3 0c-3.23,0 -5.86,2.63 -5.86,5.86l0 12.43c0,3.23 2.63,5.86 5.86,5.86l5.72 0 0 3.73c0,1.53 0.53,2.94 1.41,4.05l-7.13 0c-3.23,0 -5.86,2.63 -5.86,5.86l0 12.43c0,3.23 2.63,5.86 5.86,5.86l12.43 0c3.23,0 5.86,-2.63 5.86,-5.86l0 -0.44c0.94,0.92 1.94,1.78 3.01,2.55l0 8.13c-1.07,-0.03 -2.16,0.18 -3.17,0.64l-3.56 1.6c-0.62,0.28 -1.18,0.66 -1.67,1.12l-17.59 5.16c-9.33,2.74 -15.84,11.44 -15.84,21.16l0 1.96c0,1.59 1.29,2.89 2.89,2.89 1.59,0 2.89,-1.29 2.89,-2.89l0 -1.96c0,-7.18 4.81,-13.6 11.69,-15.62l14.41 -4.23c0.3,0.82 0.77,1.58 1.42,2.24l9.86 9.88c0.01,0.01 0.02,0.02 0.03,0.03 1.22,1.19 2.8,1.79 4.39,1.79 0.37,0 0.74,-0.03 1.11,-0.1l2.05 3.52 -4.77 26.9 -22.12 0 0 -6.27c0,-1.59 -1.29,-2.89 -2.89,-2.89 -1.59,0 -2.89,1.29 -2.89,2.89l0 6.27 -12.3 0 0 -8.94c0,-1.59 -1.29,-2.89 -2.89,-2.89 -1.59,0 -2.89,1.29 -2.89,2.89l0 8.94 -12.02 0 0 -33.7 0.36 0c1.59,0 2.89,-1.29 2.89,-2.89 0,-1.59 -1.29,-2.89 -2.89,-2.89l-34.77 0c-1.59,0 -2.89,1.29 -2.89,2.89 0,1.59 1.29,2.89 2.89,2.89l0.36 0 0 33.7 -10.46 0 0 -151.21c0,-2.41 1.96,-4.36 4.36,-4.36l96.01 0c2.4,0 4.36,1.96 4.36,4.36l0 11.71c0,1.59 1.29,2.89 2.89,2.89 1.59,0 2.89,-1.29 2.89,-2.89l0 -11.71c0,-5.15 -3.86,-9.41 -8.84,-10.05l0 -10.42c0,-3.92 -3.19,-7.1 -7.1,-7.1l-84.4 0c-3.92,0 -7.1,3.19 -7.1,7.1l0 10.42c-4.98,0.64 -8.84,4.9 -8.84,10.05l0 151.5c-3.96,1.02 -6.9,4.62 -6.9,8.89 0,5.06 4.12,9.18 9.18,9.18l178.76 0c5.06,0 9.18,-4.12 9.18,-9.18 0,-5.06 -4.12,-9.18 -9.18,-9.18zm-165.1 -173.01l84.4 0c0.73,0 1.33,0.6 1.33,1.33l0 10.33 -87.05 0 0 -10.33c0,-0.73 0.6,-1.33 1.33,-1.33zm155.04 148.61l0 24.4 -12.3 0 0 -6.27c0,-1.59 -1.29,-2.89 -2.89,-2.89 -1.59,0 -2.89,1.29 -2.89,2.89l0 6.27 -22.11 0 -4.77 -26.93 2.08 -3.72c0.39,0.07 0.78,0.11 1.17,0.11 1.58,0 3.15,-0.59 4.38,-1.77l9.87 -9.61c0.68,-0.66 1.17,-1.45 1.47,-2.3l14.31 4.2c6.88,2.02 11.69,8.44 11.69,15.62l0 0zm-53.27 -5.92l-1.82 -3.12 3.87 -3.23 3.44 2.94 -1.91 3.41 -3.59 0 0 0zm18.06 -17.84l3.63 1.62c0.18,0.08 0.24,0.33 0.08,0.48l-9.85 9.6c-0.19,0.18 -0.49,0.19 -0.7,0.02l-4.57 -3.91 9.84 -7.62c0.45,-0.35 1.05,-0.42 1.57,-0.19zm-4.57 -74.77c2.22,0 4.03,1.81 4.03,4.03 0,2.88 2.34,5.22 5.22,5.22l0.23 0c2.22,0 4.03,1.81 4.03,4.03l0 12.22 -1.89 0c-1.06,0 -1.93,-0.86 -1.93,-1.93l0 -2.63c0,-4.61 -3.78,-7.98 -7.95,-7.98 -0.84,0 -1.69,0.14 -2.53,0.41 -7.03,2.32 -14.78,2.32 -21.82,-0 -5.16,-1.71 -10.47,2.13 -10.47,7.57l0 2.64c0,1.06 -0.86,1.93 -1.93,1.93l-1.89 0 0 -12.47c0,-7.19 5.85,-13.04 13.04,-13.04l23.84 0zm-48.46 -5.27l0 -12.43c0,-0.05 0.04,-0.09 0.09,-0.09l12.43 0c0.05,0 0.09,0.04 0.09,0.09l0 12.43c0,0.05 -0.04,0.09 -0.09,0.09l-12.43 0c-0.05,0 -0.09,-0.04 -0.09,-0.09l0 0zm0 31.94l0 -12.43c0,-0.05 0.04,-0.09 0.09,-0.09l5.72 0 0 12.6 -5.72 0c-0.05,0 -0.09,-0.04 -0.09,-0.09l0 0zm12.6 31.94c0,0.05 -0.04,0.09 -0.09,0.09l-12.43 0c-0.05,0 -0.09,-0.04 -0.09,-0.09l0 -12.43c0,-0.05 0.04,-0.09 0.09,-0.09l11.33 0c0.31,1.21 0.71,2.39 1.18,3.53l0 8.99 0 0zm3.8 -17.75c-0.14,-2.15 -1.93,-3.83 -4.07,-3.83 -0.42,0 -0.76,-0.34 -0.76,-0.76l0 -4.98 1.89 0c4.25,0 7.7,-3.46 7.7,-7.7l0 -2.64c0,-1.48 1.44,-2.56 2.89,-2.08 8.2,2.71 17.23,2.71 25.43,-0 1.42,-0.47 2.88,0.58 2.88,2.08l0 2.63c0,4.25 3.46,7.7 7.7,7.7l1.89 0 0 4.98c0,0.42 -0.34,0.76 -0.76,0.76 -2.15,0 -3.94,1.68 -4.07,3.84 -0.68,10.72 -9.62,19.11 -20.37,19.11 -10.75,0 -19.69,-8.39 -20.37,-19.11l0 0zm20.37 24.89c3.39,0 6.63,-0.65 9.62,-1.84l0 7.66 -9.38 7.26 -9.85 -7.36 0 -7.56c2.98,1.18 6.23,1.84 9.62,1.84l0 0zm-19.85 11.09c-0.16,-0.16 -0.09,-0.4 0.09,-0.48l3.56 -1.6c0.51,-0.23 1.1,-0.16 1.55,0.17l10.26 7.67 -4.93 4.12c-0.2,0.17 -0.49,0.16 -0.69,-0.02l-9.84 -9.86zm18.8 21.54l2.1 0 4.35 24.55 -10.81 0 4.35 -24.55zm-96.47 -9.15l22.49 0 0 33.7 -22.49 0 0 -33.7zm159.04 46.28l-178.77 0c-1.88,0 -3.41,-1.53 -3.41,-3.41 0,-1.88 1.53,-3.41 3.41,-3.41l178.77 0c1.88,0 3.41,1.53 3.41,3.41 0,1.88 -1.53,3.41 -3.41,3.41z"/>
  </g>
 </g>
</svg>
