<?xml version="1.0" encoding="UTF-8"?>
<!DOCTYPE svg PUBLIC "-//W3C//DTD SVG 1.1//EN" "http://www.w3.org/Graphics/SVG/1.1/DTD/svg11.dtd">
<!-- Creator: CorelDRAW 2021 (64-Bit Оценочная версия) -->
<svg xmlns="http://www.w3.org/2000/svg" xml:space="preserve" width="15.705mm" height="16.2216mm" version="1.1" style="shape-rendering:geometricPrecision; text-rendering:geometricPrecision; image-rendering:optimizeQuality; fill-rule:evenodd; clip-rule:evenodd"
viewBox="0 0 1496.79 1546.03"
 xmlns:xlink="http://www.w3.org/1999/xlink"
 xmlns:xodm="http://www.corel.com/coreldraw/odm/2003">
 <defs>
  <style type="text/css">
   <![CDATA[
    .fil0 {fill:white;fill-rule:nonzero}
   ]]>
  </style>
 </defs>
 <g id="Слой_x0020_1">
  <metadata id="CorelCorpID_0Corel-Layer"/>
  <path class="fil0" d="M1496.76 947.32l-149.68 0 0 -74.83c0,-41.27 -33.58,-74.84 -74.83,-74.84l-249.46 0c-21.51,0 -40.79,9.25 -54.46,23.83l-269.84 -44.96 0 -62.51c74.43,-43.2 124.73,-123.6 124.73,-215.71l24.94 0c41.27,0 74.84,-33.58 74.84,-74.83 0,-41.27 -33.58,-74.84 -74.84,-74.84l-11.97 0 13.67 -31.7c25.65,-59.4 21.06,-128.01 -12.22,-183.48 -21.11,-35.17 -51.96,-62.74 -89.28,-79.7l-69.62 -31.7c-82.2,-37.43 -182.96,-26.48 -255.22,27.69l-39.34 29.49 0.05 0.08c-38.91,10.15 -73.26,35.2 -94.37,70.36 -27.47,45.8 -29.61,101.66 -5.74,149.43l24.77 49.54 -9.52 0c-41.27,0 -74.84,33.58 -74.84,74.84 0,41.26 33.58,74.83 74.84,74.83l24.94 0c0,92.1 50.29,172.5 124.73,215.71l0 62.51 -303.11 50.52c-84.55,14.1 -145.91,86.51 -145.91,172.25l0 521.79c0,13.8 11.18,24.95 24.95,24.95l773.33 0 -798.28 0 648.6 0c27.52,0 49.89,-22.38 49.89,-49.89l0 -498.92c0,-27.52 -22.38,-49.89 -49.89,-49.89l848.16 0zm-199.56 -74.83l0 74.83 -157.96 0c-13.37,-42.68 -42.55,-78.15 -80.8,-99.79l213.81 0c13.74,0 24.95,11.18 24.95,24.95zm-299.36 4.86c39.29,8.05 71.7,34.45 88.06,69.97l-88.06 0 0 -69.97zm-124.73 -453.89c0,13.74 -11.2,24.94 -24.95,24.94l-24.94 0 0 -49.89 24.94 0c13.75,0 24.95,11.2 24.95,24.95zm-540.48 -248.14c18.97,-31.58 53.64,-51.22 90.46,-51.22 39.11,0 75.42,19.43 97.15,51.96l7.82 11.75 41.52 -27.66 -7.83 -11.75c-22.5,-33.73 -56.06,-57.43 -94.1,-67.95 56.48,-35.03 129.65,-40.71 190.41,-13.05l69.62 31.71c28.07,12.77 51.29,33.5 67.18,59.97 25.05,41.73 28.49,93.35 9.21,138.05l-1.68 3.89 -31.68 -63.36c-3.32,-6.61 -9.38,-11.43 -16.58,-13.12 -7.19,-1.73 -14.77,-0.1 -20.71,4.32l-39.91 29.94c-34.32,25.77 -76.86,39.93 -119.74,39.93 -42.88,0 -85.41,-14.16 -119.73,-39.91l-39.91 -29.93c-5.94,-4.47 -13.55,-6.07 -20.71,-4.32 -7.21,1.7 -13.27,6.51 -16.58,13.12l-33.81 67.62 -14.27 -28.53c-16.21,-32.43 -14.77,-70.37 3.89,-101.45l0 0zm-33.27 273.08c-13.75,0 -24.95,-11.2 -24.95,-24.94 0,-13.75 11.2,-24.95 24.95,-24.95l24.94 0 0 49.89 -24.94 0zm74.83 49.89l0 -143.79 33.87 -67.78 16.02 12c42.91,32.19 96.07,49.89 149.67,49.89 53.61,0 106.77,-17.71 149.68,-49.89l16.02 -12 33.87 67.78 0 143.79c0,110.04 -89.53,199.57 -199.57,199.57 -110.03,0 -199.56,-89.53 -199.56,-199.57zm199.57 249.46c26.07,0 51.19,-4.04 74.83,-11.49l0 51.07 -74.83 74.83 -74.84 -74.83 0 -51.07c23.66,7.45 48.77,11.49 74.84,11.49zm-8.06 274.41l16.12 0 40.71 101.79 -48.78 211.36 -48.77 -211.36 40.71 -101.79zm55.35 -103.45l-35.69 53.56 -23.21 -0.01 -35.72 -53.55 8.33 -24.97 21.36 21.35c4.87,4.84 11.25,7.29 17.64,7.29 6.39,0 12.77,-2.45 17.63,-7.31l21.36 -21.36 8.3 25zm-321.7 577.42l0 -424.09 -49.89 0 0 424.09 -199.57 0 0 -496.85c0,-61.22 43.83,-112.98 104.23,-123.06l311.3 -51.87 29.91 29.92 -20.08 60.21c-2.44,7.31 -1.37,15.32 2.93,21.73l42.6 63.91 -45.02 112.56c-1.9,4.72 -2.27,9.9 -1.15,14.87l74.84 324.3c2.62,11.32 12.69,19.33 24.32,19.33 11.62,0 21.7,-8.01 24.32,-19.33l74.83 -324.3c1.12,-4.94 0.75,-10.13 -1.14,-14.87l-45.03 -112.56 42.61 -63.91c4.26,-6.41 5.34,-14.42 2.92,-21.73l-20.08 -60.21 29.91 -29.92 266.23 44.36c-0.05,1.28 -0.37,2.47 -0.37,3.76l0 74.84 -149.68 0c-27.52,0 -49.89,22.38 -49.89,49.89l0 498.92 -449.03 0zm523.86 0l-24.94 0 0 -49.89 698.51 0 0 49.89 -673.57 0zm673.57 -99.79l-698.51 0 0 -202.34c31.73,32.45 75.88,52.66 124.73,52.66l149.67 0 0 24.95c0,41.26 33.59,74.83 74.84,74.83 41.26,0 74.83,-33.58 74.83,-74.83l0 -24.95 149.68 0c48.84,0 93.02,-20.22 124.76,-52.66l0 202.34zm-374.22 -124.73l0 -124.73 49.89 0 0 124.73c0,13.77 -11.2,24.94 -24.94,24.94 -13.74,0 -24.95,-11.17 -24.95,-24.94zm374.19 -199.57c0,68.78 -55.95,124.73 -124.73,124.73l-149.68 0 0 -74.83c0,-13.79 -11.17,-24.94 -24.94,-24.94l-99.79 0c-13.77,0 -24.95,11.15 -24.95,24.94l0 74.84 -149.67 -0.01c-68.78,0 -124.73,-55.95 -124.73,-124.73l0 -74.83 698.48 0 0 74.83z"/>
 </g>
</svg>
