<?xml version="1.0" encoding="UTF-8"?>
<!DOCTYPE svg PUBLIC "-//W3C//DTD SVG 1.1//EN" "http://www.w3.org/Graphics/SVG/1.1/DTD/svg11.dtd">
<!-- Creator: CorelDRAW 2021 (64-Bit Оценочная версия) -->
<svg xmlns="http://www.w3.org/2000/svg" xml:space="preserve" width="16.1489mm" height="17.3072mm" version="1.1" style="shape-rendering:geometricPrecision; text-rendering:geometricPrecision; image-rendering:optimizeQuality; fill-rule:evenodd; clip-rule:evenodd"
viewBox="0 0 297.62 318.96"
 xmlns:xlink="http://www.w3.org/1999/xlink"
 xmlns:xodm="http://www.corel.com/coreldraw/odm/2003">
 <defs>
  <style type="text/css">
   <![CDATA[
    .fil0 {fill:white;fill-rule:nonzero}
   ]]>
  </style>
 </defs>
 <g id="Слой_x0020_1">
  <metadata id="CorelCorpID_0Corel-Layer"/>
  <g id="_1835440472736">
   <path class="fil0" d="M72.56 60.33l-6.94 -8.05c-17.86,15.37 -31.13,35.38 -38.32,57.82l10.1 3.24c6.61,-20.57 18.77,-38.92 35.16,-53.01l0 0zm0 0z"/>
   <path class="fil0" d="M97.99 43.61l-4.65 -9.56c-5.67,2.75 -11.14,5.92 -16.35,9.48l6 8.77c4.78,-3.26 9.79,-6.16 14.99,-8.69l0 0zm0 0z"/>
   <path class="fil0" d="M21.53 311.97c-0.54,1.62 -0.27,3.4 0.73,4.79 1,1.39 2.6,2.21 4.31,2.21l244.47 0c1.71,0 3.31,-0.82 4.31,-2.21 1,-1.38 1.27,-3.17 0.73,-4.79l-20 -60.02c46.44,-48.29 54.87,-121.67 20.6,-179.24 -34.27,-57.57 -102.78,-85.15 -167.38,-67.36 -64.59,17.79 -109.34,76.55 -109.3,143.55 -0.1,38.45 14.81,75.42 41.54,103.05l-20.01 60.02zm242.13 -3.63l-229.71 0 17.71 -53.15 194.29 0 17.71 53.15zm-106.67 -143.49l22.78 26.57 -49.78 0 -22.78 -26.57 49.78 0zm-13.5 -10.63l0 -10.63 10.63 0 0 10.63 -10.63 0zm42.52 47.83l0 42.52 -53.15 0 0 -42.52 53.15 0zm-63.77 -3.35l0 45.86 -10.63 0 0 -31.89c0,-2.93 -2.38,-5.31 -5.32,-5.31l-21.26 0c-2.93,0 -5.32,2.38 -5.32,5.31l0 31.89 -10.63 0 0 -45.86 26.57 -31 26.57 31zm-21.26 19.29l0 26.57 -10.63 0 0 -26.57 10.63 0zm105.29 -29.68c-1,-1.39 -2.61,-2.21 -4.32,-2.21l-2.78 0 7.72 -19.28c0.66,-1.64 0.46,-3.5 -0.53,-4.96 -0.99,-1.46 -2.64,-2.34 -4.4,-2.34l-1.47 0 12.1 -21.17 12.1 21.17 -1.47 0c-1.76,0 -3.42,0.88 -4.41,2.34 -0.99,1.46 -1.19,3.32 -0.53,4.96l7.72 19.28 -2.78 0c-1.71,0 -3.31,0.82 -4.31,2.21 -1,1.39 -1.27,3.17 -0.73,4.79l8.29 24.89 -27.76 0 8.29 -24.89c0.54,-1.62 0.27,-3.4 -0.72,-4.79l0 0zm1 40.3l0 15.95 -10.63 0 0 -15.95 10.63 0zm-196.64 -79.72c-0.03,-62.2 41.51,-116.76 101.48,-133.28 59.97,-16.52 123.59,9.07 155.42,62.52 31.83,53.45 24.02,121.57 -19.08,166.43l-30.55 0 0 -15.95 15.95 0c1.71,0 3.31,-0.82 4.31,-2.21 1,-1.38 1.27,-3.17 0.73,-4.78l-8.29 -24.89 3.25 0c1.76,0 3.42,-0.87 4.4,-2.33 0.99,-1.46 1.19,-3.32 0.53,-4.96l-7.72 -19.28 2.78 0c1.9,0.01 3.66,-1.01 4.61,-2.65 0.95,-1.65 0.95,-3.67 0,-5.32l-21.26 -37.2c-1.02,-1.55 -2.76,-2.48 -4.61,-2.48 -1.86,0 -3.59,0.93 -4.61,2.48l-21.26 37.2c-0.95,1.65 -0.95,3.67 0,5.32 0.95,1.65 2.71,2.66 4.61,2.65l2.78 0 -5.9 14.77 -23.45 -27.36 0 -19.3c0,-2.94 -2.38,-5.32 -5.32,-5.32l-21.26 0c-2.93,0 -5.32,2.38 -5.32,5.32l0 15.94 -37.2 0c-0.76,0.01 -1.5,0.2 -2.17,0.53l-0.06 0c-0.68,0.3 -1.28,0.74 -1.78,1.29l-31.89 37.2c-0.84,0.97 -1.3,2.21 -1.3,3.49l0 47.83 -9.3 0c-24.8,-25.66 -38.62,-59.98 -38.53,-95.66l-0 0zm0 0z"/>
   <path class="fil0" d="M196.64 265.82l-95.66 0c-2.93,0 -5.31,2.38 -5.31,5.32l0 21.26c0,2.93 2.38,5.31 5.31,5.31l95.66 0c2.93,0 5.31,-2.38 5.31,-5.31l0 -21.26c0,-2.94 -2.38,-5.32 -5.31,-5.32zm-5.32 21.26l-85.03 0 0 -10.63 85.03 0 0 10.63zm0 0z"/>
   <path class="fil0" d="M143.49 212.67l10.63 0 0 15.94 -10.63 0 0 -15.94zm0 0z"/>
   <path class="fil0" d="M164.75 212.67l10.63 0 0 15.94 -10.63 0 0 -15.94zm0 0z"/>
   <path class="fil0" d="M127.55 95.75l10.63 0 0 10.63 -10.63 0 0 -10.63zm0 0z"/>
   <path class="fil0" d="M106.29 63.87l10.63 0 0 10.63 -10.63 0 0 -10.63zm0 0z"/>
   <path class="fil0" d="M255.1 138.27l10.63 0 0 10.63 -10.63 0 0 -10.63zm0 0z"/>
   <path class="fil0" d="M228.53 85.13l10.63 0 0 10.63 -10.63 0 0 -10.63zm0 0z"/>
   <path class="fil0" d="M26.58 164.84l10.63 0 0 10.63 -10.63 0 0 -10.63zm0 0z"/>
   <path class="fil0" d="M154.12 26.67l10.63 0 0 10.63 -10.63 0 0 -10.63zm0 0z"/>
   <path class="fil0" d="M175.38 74.5l10.63 0 0 10.63 -10.63 0 0 -10.63zm0 0z"/>
   <path class="fil0" d="M58.46 122.33l10.63 0 0 10.63 -10.63 0 0 -10.63zm0 0z"/>
  </g>
 </g>
</svg>
