<?xml version="1.0" encoding="UTF-8"?>
<!DOCTYPE svg PUBLIC "-//W3C//DTD SVG 1.1//EN" "http://www.w3.org/Graphics/SVG/1.1/DTD/svg11.dtd">
<!-- Creator: CorelDRAW 2021 (64-Bit Оценочная версия) -->
<svg xmlns="http://www.w3.org/2000/svg" xml:space="preserve" width="4.6598mm" height="4.6599mm" version="1.1" style="shape-rendering:geometricPrecision; text-rendering:geometricPrecision; image-rendering:optimizeQuality; fill-rule:evenodd; clip-rule:evenodd"
viewBox="0 0 26.69 26.69"
 xmlns:xlink="http://www.w3.org/1999/xlink"
 xmlns:xodm="http://www.corel.com/coreldraw/odm/2003">
 <defs>
  <style type="text/css">
   <![CDATA[
    .fil0 {fill:white;fill-rule:nonzero}
   ]]>
  </style>
 </defs>
 <g id="Слой_x0020_1">
  <metadata id="CorelCorpID_0Corel-Layer"/>
  <path class="fil0" d="M20.29 17.66c-0.87,-0.86 -1.96,-0.86 -2.83,0 -0.66,0.66 -1.32,1.31 -1.97,1.98 -0.18,0.18 -0.33,0.22 -0.54,0.1 -0.43,-0.23 -0.88,-0.42 -1.29,-0.68 -1.92,-1.21 -3.52,-2.75 -4.94,-4.5 -0.71,-0.87 -1.33,-1.79 -1.77,-2.84 -0.09,-0.21 -0.07,-0.35 0.1,-0.52 0.66,-0.64 1.3,-1.29 1.95,-1.95 0.91,-0.91 0.91,-1.98 -0.01,-2.89 -0.52,-0.52 -1.03,-1.03 -1.55,-1.56 -0.53,-0.53 -1.06,-1.07 -1.6,-1.6 -0.87,-0.85 -1.96,-0.85 -2.83,0.01 -0.67,0.66 -1.31,1.33 -1.98,1.97 -0.63,0.59 -0.94,1.32 -1.01,2.17 -0.11,1.38 0.23,2.69 0.71,3.96 0.98,2.63 2.47,4.97 4.27,7.12 2.44,2.9 5.35,5.19 8.75,6.85 1.53,0.74 3.12,1.32 4.85,1.41 1.19,0.07 2.22,-0.23 3.05,-1.16 0.57,-0.63 1.21,-1.21 1.8,-1.82 0.89,-0.9 0.89,-1.99 0.01,-2.88 -1.06,-1.06 -2.12,-2.12 -3.18,-3.17z"/>
  <path class="fil0" d="M19.23 13.23l2.05 -0.35c-0.32,-1.88 -1.21,-3.59 -2.56,-4.94 -1.43,-1.43 -3.23,-2.33 -5.22,-2.6l-0.29 2.06c1.54,0.22 2.94,0.91 4.04,2.02 1.04,1.04 1.73,2.37 1.98,3.82z"/>
  <path class="fil0" d="M22.44 4.32c-2.37,-2.37 -5.36,-3.86 -8.66,-4.32l-0.29 2.06c2.85,0.4 5.44,1.69 7.49,3.73 1.94,1.94 3.21,4.39 3.67,7.08l2.05 -0.35c-0.54,-3.12 -2.01,-5.95 -4.25,-8.2z"/>
 </g>
</svg>
