<?xml version="1.0" encoding="UTF-8"?>
<!DOCTYPE svg PUBLIC "-//W3C//DTD SVG 1.1//EN" "http://www.w3.org/Graphics/SVG/1.1/DTD/svg11.dtd">
<!-- Creator: CorelDRAW 2021 (64-Bit Оценочная версия) -->
<svg xmlns="http://www.w3.org/2000/svg" xml:space="preserve" width="13.7588mm" height="13.7587mm" version="1.1" style="shape-rendering:geometricPrecision; text-rendering:geometricPrecision; image-rendering:optimizeQuality; fill-rule:evenodd; clip-rule:evenodd"
viewBox="0 0 211.17 211.17"
 xmlns:xlink="http://www.w3.org/1999/xlink"
 xmlns:xodm="http://www.corel.com/coreldraw/odm/2003">
 <defs>
  <style type="text/css">
   <![CDATA[
    .fil0 {fill:white}
    .fil1 {fill:black;fill-rule:nonzero}
   ]]>
  </style>
 </defs>
 <g id="Слой_x0020_1">
  <metadata id="CorelCorpID_0Corel-Layer"/>
  <path class="fil0" d="M31.68 0l147.82 0c17.42,0 31.68,14.25 31.68,31.68l0 147.82c0,17.42 -14.26,31.68 -31.68,31.68l-147.82 0c-17.42,0 -31.68,-14.25 -31.68,-31.68l0 -147.82c0,-17.42 14.26,-31.68 31.68,-31.68z"/>
  <g id="_1918624674128">
   <g>
    <path class="fil1" d="M47.04 58.3c0.5,0 1.01,-0.18 1.42,-0.54 0.5,-0.45 1.03,-0.91 1.55,-1.35 0.89,-0.76 1,-2.09 0.25,-2.98 -0.76,-0.89 -2.09,-1 -2.98,-0.25 -0.55,0.47 -1.1,0.95 -1.64,1.43 -0.87,0.78 -0.94,2.12 -0.16,2.99 0.42,0.47 0.99,0.7 1.57,0.7l0 0z"/>
    <path class="fil1" d="M104.3 40.88c1.37,0.2 2.74,0.44 4.09,0.72 0.15,0.03 0.29,0.04 0.43,0.04 0.98,0 1.86,-0.69 2.07,-1.69 0.24,-1.14 -0.5,-2.26 -1.64,-2.5 -1.43,-0.3 -2.9,-0.56 -4.35,-0.77 -1.16,-0.17 -2.23,0.63 -2.4,1.79 -0.17,1.16 0.63,2.23 1.79,2.4l0 0z"/>
    <path class="fil1" d="M138.07 55.92c1.06,0.88 2.11,1.81 3.12,2.75 0.41,0.38 0.93,0.57 1.45,0.57 0.56,0 1.13,-0.23 1.55,-0.67 0.8,-0.85 0.76,-2.19 -0.1,-2.99 -1.07,-1 -2.18,-1.98 -3.31,-2.92 -0.9,-0.75 -2.23,-0.62 -2.98,0.28 -0.75,0.9 -0.62,2.23 0.28,2.98z"/>
    <path class="fil1" d="M116.41 43.79c1.31,0.45 2.62,0.94 3.9,1.46 0.26,0.11 0.53,0.16 0.8,0.16 0.83,0 1.62,-0.5 1.96,-1.31 0.44,-1.08 -0.07,-2.32 -1.16,-2.76 -1.36,-0.56 -2.75,-1.08 -4.14,-1.55 -1.11,-0.38 -2.31,0.22 -2.69,1.32 -0.38,1.11 0.22,2.31 1.32,2.68z"/>
    <path class="fil1" d="M91.78 40.2c0.02,0 0.05,0 0.08,-0 1.38,-0.05 2.78,-0.06 4.16,-0.02 1.17,0.03 2.14,-0.9 2.17,-2.06 0.03,-1.17 -0.9,-2.14 -2.07,-2.17 -1.47,-0.04 -2.95,-0.03 -4.41,0.02 -1.17,0.04 -2.08,1.02 -2.04,2.19 0.04,1.14 0.98,2.04 2.11,2.04l0 0z"/>
    <path class="fil1" d="M155.95 78.61c0.37,0.75 1.12,1.18 1.9,1.18 0.31,0 0.63,-0.07 0.93,-0.22 1.05,-0.51 1.48,-1.78 0.97,-2.83 -0.64,-1.32 -1.34,-2.63 -2.06,-3.9 -0.58,-1.02 -1.87,-1.37 -2.89,-0.8 -1.02,0.58 -1.37,1.87 -0.8,2.89 0.68,1.2 1.33,2.44 1.94,3.67z"/>
    <path class="fil1" d="M149.48 67.97c0.42,0.56 1.05,0.86 1.7,0.86 0.44,0 0.88,-0.14 1.26,-0.42 0.94,-0.7 1.14,-2.02 0.44,-2.96 -0.87,-1.18 -1.79,-2.34 -2.73,-3.47 -0.75,-0.89 -2.09,-1.01 -2.98,-0.26 -0.9,0.75 -1.01,2.09 -0.26,2.98 0.89,1.06 1.75,2.15 2.57,3.26l0 0z"/>
    <path class="fil1" d="M159.14 86.27c0.45,1.3 0.87,2.64 1.24,3.97 0.26,0.93 1.11,1.55 2.04,1.55 0.19,0 0.38,-0.02 0.57,-0.08 1.13,-0.31 1.78,-1.48 1.47,-2.61 -0.39,-1.41 -0.84,-2.83 -1.32,-4.21 -0.38,-1.1 -1.59,-1.69 -2.69,-1.31 -1.1,0.38 -1.69,1.59 -1.31,2.69l0 0z"/>
    <path class="fil1" d="M79.04 41.82c0.15,0 0.3,-0.02 0.46,-0.05 1.35,-0.3 2.72,-0.56 4.08,-0.77 1.15,-0.18 1.94,-1.26 1.76,-2.42 -0.18,-1.15 -1.27,-1.94 -2.42,-1.76 -1.45,0.23 -2.91,0.5 -4.34,0.82 -1.14,0.25 -1.86,1.38 -1.61,2.52 0.22,0.99 1.09,1.66 2.06,1.66l0 0z"/>
    <path class="fil1" d="M127.8 48.87c1.2,0.67 2.4,1.4 3.57,2.14 0.35,0.23 0.75,0.34 1.14,0.34 0.7,0 1.38,-0.34 1.78,-0.97 0.63,-0.98 0.35,-2.29 -0.64,-2.93 -1.24,-0.79 -2.51,-1.56 -3.79,-2.27 -1.02,-0.57 -2.31,-0.21 -2.88,0.81 -0.57,1.02 -0.21,2.31 0.81,2.88l0 0z"/>
    <path class="fil1" d="M66.81 45.71c0.27,0 0.55,-0.05 0.82,-0.17 1.27,-0.54 2.58,-1.04 3.88,-1.5 1.1,-0.39 1.68,-1.6 1.29,-2.7 -0.39,-1.1 -1.6,-1.68 -2.7,-1.29 -1.38,0.49 -2.77,1.02 -4.12,1.59 -1.08,0.46 -1.58,1.7 -1.13,2.77 0.34,0.81 1.13,1.29 1.95,1.29z"/>
    <path class="fil1" d="M55.49 51.78c0.4,0 0.8,-0.11 1.16,-0.35 1.15,-0.76 2.34,-1.49 3.54,-2.18 1.01,-0.58 1.36,-1.88 0.78,-2.89 -0.58,-1.01 -1.88,-1.36 -2.89,-0.78 -1.27,0.73 -2.53,1.51 -3.76,2.32 -0.98,0.64 -1.25,1.96 -0.6,2.93 0.41,0.62 1.08,0.95 1.77,0.95l0 0z"/>
    <path class="fil1" d="M163.91 95.99c-1.16,0.17 -1.95,1.25 -1.78,2.41 0.1,0.67 0.19,1.36 0.28,2.04 0.13,1.07 1.04,1.86 2.1,1.86 0.08,0 0.17,-0.01 0.26,-0.02 1.16,-0.14 1.99,-1.19 1.85,-2.35 -0.09,-0.72 -0.19,-1.44 -0.29,-2.16 -0.17,-1.16 -1.26,-1.95 -2.41,-1.78z"/>
    <path class="fil1" d="M59.81 91.94c0,-1.17 -0.95,-2.12 -2.12,-2.12l-4.06 0c-1.17,0 -2.12,0.95 -2.12,2.12 0,1.17 0.95,2.12 2.12,2.12l4.06 0c1.17,0 2.12,-0.95 2.12,-2.12l0 0z"/>
    <path class="fil1" d="M64.57 99.52l-4.06 0c-1.17,0 -2.12,0.95 -2.12,2.12 0,1.17 0.95,2.12 2.12,2.12l4.06 0c1.17,0 2.12,-0.95 2.12,-2.12 0,-1.17 -0.95,-2.12 -2.12,-2.12z"/>
    <path class="fil1" d="M54.88 118.59l-4.06 0c-1.17,0 -2.12,0.95 -2.12,2.12 0,1.17 0.95,2.12 2.12,2.12l4.06 0c1.17,0 2.12,-0.95 2.12,-2.12 0,-1.17 -0.95,-2.12 -2.12,-2.12l0 0z"/>
    <path class="fil1" d="M98.39 57.93l-4.06 0c-1.17,0 -2.12,0.95 -2.12,2.12 0,1.17 0.95,2.12 2.12,2.12l4.06 0c1.17,0 2.12,-0.95 2.12,-2.12 0,-1.17 -0.95,-2.12 -2.12,-2.12l0 0z"/>
    <path class="fil1" d="M112.38 139.48c0,-1.17 -0.95,-2.12 -2.12,-2.12l-4.06 0c-1.17,0 -2.12,0.95 -2.12,2.12 0,1.17 0.95,2.12 2.12,2.12l4.06 0c1.17,0 2.12,-0.95 2.12,-2.12z"/>
    <path class="fil1" d="M101.37 145.2l-4.06 0c-1.17,0 -2.12,0.95 -2.12,2.12 0,1.17 0.95,2.12 2.12,2.12l4.06 0c1.17,0 2.12,-0.95 2.12,-2.12 0,-1.17 -0.95,-2.12 -2.12,-2.12z"/>
    <path class="fil1" d="M175.69 109.81c-1.49,-1.49 -3.56,-2.31 -5.67,-2.24 -5.54,0.18 -10.85,2.45 -14.82,6.28 0.14,-1.69 0.21,-3.39 0.21,-5.11 0,-4.54 -0.49,-9.04 -1.49,-13.47 -1.67,-7.42 -4.75,-14.5 -9.02,-20.8 -2.13,-3.15 -4.56,-6.09 -7.25,-8.79 -2.13,-2.15 -4.39,-4.1 -6.8,-5.9 -3.58,-2.68 -7.67,-5.08 -11.62,-6.84 -7.82,-3.49 -16.36,-5.28 -24.92,-5.28 -16.32,0 -31.66,6.35 -43.19,17.89 -1.11,1.11 -2.17,2.25 -3.19,3.44 -9.48,11.05 -14.7,25.17 -14.7,39.75 0,17.63 7.47,34.13 20.61,45.74 6.05,5.37 13.19,9.54 20.87,12.14 6.31,2.13 12.96,3.2 19.61,3.2 10.05,0 19.72,-2.42 28.37,-6.96l4.36 9.58c0.65,1.42 1.95,2.44 3.49,2.72 1.49,0.27 3.13,-0.22 4.23,-1.32l3.16 -3.16c0.84,-0.84 1.34,-1.96 1.39,-3.16l0.38 -8.31 8.21 -7.45 10.05 15.2c0.79,1.2 2.07,1.97 3.5,2.12 1.38,0.14 2.84,-0.36 3.86,-1.38l3.16 -3.16c1.08,-1.08 1.58,-2.62 1.34,-4.13l-3.97 -24.88 4.57 -4.06c4.57,-4.06 7.31,-9.9 7.5,-16.01 0.07,-2.11 -0.75,-4.17 -2.24,-5.67l0 0zm-48.75 -47.64c12.58,8.82 21.04,22.3 23.49,37.35l-34.92 0c-1.27,0 -2.47,-0.5 -3.37,-1.4 -0.9,-0.9 -1.4,-2.1 -1.4,-3.37 0,-2.63 2.14,-4.76 4.76,-4.76l8.45 -0c2.4,0 4.66,-0.93 6.36,-2.63 1.7,-1.7 2.64,-3.96 2.64,-6.36 0,-4.96 -4.04,-9 -9,-9l-3.91 0c-1.31,0 -2.55,-0.51 -3.48,-1.44 -0.93,-0.93 -1.44,-2.16 -1.44,-3.47 0,-2.71 2.21,-4.92 4.92,-4.92l6.88 0 0 0zm-32.62 103.43c-11.08,0 -21.44,-3.19 -30.19,-8.7l14.5 0c2.74,0 5.31,-1.07 7.25,-3 1.94,-1.94 3,-4.51 3,-7.24 0,-5.65 -4.6,-10.24 -10.25,-10.24l-7.5 0c-0.77,0 -1.49,-0.3 -2.04,-0.85 -0.54,-0.54 -0.85,-1.27 -0.85,-2.04 0,-1.59 1.29,-2.88 2.88,-2.88l27.62 0c3.21,0 6.22,-1.25 8.49,-3.52 2.27,-2.27 3.52,-5.28 3.52,-8.49 0,-6.62 -5.39,-12.01 -12.01,-12.01l-10.93 0c-4.41,0 -8,-3.59 -8,-8l0 -0.67c0,-1.96 0.76,-3.8 2.15,-5.18 1.38,-1.38 3.22,-2.15 5.18,-2.15 2.99,0 5.8,-1.16 7.9,-3.28 2.11,-2.11 3.28,-4.92 3.28,-7.91 0,-6.17 -5.02,-11.18 -11.18,-11.18l-14.43 0c-1.17,0 -2.12,0.95 -2.12,2.12 0,1.17 0.95,2.12 2.12,2.12l14.43 -0c3.83,0 6.95,3.12 6.95,6.95 0,1.86 -0.72,3.6 -2.04,4.91 -1.31,1.31 -3.05,2.04 -4.91,2.04 -3.09,0 -5.99,1.2 -8.18,3.39 -2.19,2.18 -3.39,5.08 -3.39,8.18l0 0.67c0,6.75 5.49,12.24 12.24,12.24l10.93 0c4.29,0 7.77,3.49 7.77,7.77 0,2.08 -0.81,4.03 -2.28,5.5 -1.47,1.47 -3.42,2.28 -5.49,2.28l-27.62 0c-3.92,0 -7.12,3.19 -7.12,7.12 0,1.9 0.74,3.69 2.08,5.04 1.34,1.34 3.13,2.08 5.03,2.08l7.5 0c3.32,0 6.01,2.7 6.01,6.01 0,1.6 -0.62,3.11 -1.76,4.25 -1.14,1.14 -2.65,1.76 -4.25,1.76l-20.41 0c-13.2,-10.85 -20.76,-26.82 -20.76,-43.92 0,-13.25 4.63,-26.08 13.06,-36.26l12.28 0c1.17,0 2.12,-0.95 2.12,-2.12 0,-1.17 -0.95,-2.11 -2.12,-2.11l-8.35 0c10.27,-10.11 24.35,-16.36 39.86,-16.36 9.17,0 17.83,2.18 25.5,6.05 -4.94,0.12 -8.92,4.18 -8.92,9.15 0,2.45 0.95,4.74 2.68,6.47 1.73,1.73 4.03,2.68 6.47,2.68l3.91 0c2.63,0 4.76,2.14 4.76,4.76 0,1.27 -0.5,2.47 -1.39,3.37 -0.9,0.9 -2.1,1.39 -3.37,1.39l-8.45 0c-4.96,0 -9,4.04 -9,9 0,2.4 0.93,4.66 2.63,6.36 1.7,1.7 3.96,2.63 6.36,2.63l35.44 0c0.14,1.65 0.22,3.31 0.22,4.99 0,3.64 -0.35,7.2 -1.01,10.66l-0.21 0.24 -10.92 -1.74c-1.16,-0.19 -2.24,0.6 -2.42,1.76 -0.18,1.15 0.6,2.24 1.76,2.42l8.2 1.31 -9.99 11.01 -15.74 -10.4c-0.18,-0.12 -0.23,-0.28 -0.24,-0.4 -0.01,-0.12 0.01,-0.29 0.16,-0.44l3.16 -3.16c0.12,-0.12 0.3,-0.18 0.47,-0.15l4.14 0.66c1.15,0.18 2.24,-0.6 2.42,-1.76 0.18,-1.15 -0.6,-2.24 -1.76,-2.42l-4.14 -0.66c-1.51,-0.24 -3.05,0.26 -4.13,1.34l-3.16 3.16c-1.02,1.02 -1.52,2.42 -1.38,3.86 0.15,1.43 0.92,2.71 2.12,3.5l15.22 10.06 -7.45 8.21 -8.31 0.38c-1.19,0.06 -2.31,0.55 -3.15,1.39l-3.16 3.16c-1.11,1.11 -1.6,2.69 -1.32,4.23 0.28,1.54 1.3,2.85 2.72,3.49l4.64 2.11c-7.13,3.23 -15.04,5.03 -23.37,5.03zm71.17 -4.04l-3.16 3.16c-0.15,0.15 -0.32,0.17 -0.44,0.16 -0.12,-0.01 -0.28,-0.06 -0.4,-0.24l-10.4 -15.74 11.01 -9.99 3.54 22.18c0.03,0.17 -0.03,0.35 -0.15,0.47l0 0zm2.12 -33.23l-7.87 6.99 -23.52 21.36c-0.42,0.38 -0.67,0.91 -0.69,1.47l-0.42 9.19c-0.01,0.14 -0.06,0.26 -0.16,0.36l-3.16 3.16c-0.17,0.17 -0.35,0.17 -0.48,0.15 -0.13,-0.02 -0.3,-0.1 -0.4,-0.31l-4.7 -10.35c-0.21,-0.47 -0.59,-0.84 -1.05,-1.05l-10.35 -4.7c-0.21,-0.1 -0.29,-0.27 -0.31,-0.4 -0.02,-0.13 -0.02,-0.31 0.15,-0.48l3.16 -3.16c0.1,-0.1 0.22,-0.15 0.36,-0.16l9.19 -0.42c0.56,-0.03 1.09,-0.27 1.47,-0.69l28.35 -31.4c3.29,-3.71 8.02,-5.92 12.98,-6.09 0.04,0 0.08,-0 0.12,-0 0.91,0 1.77,0.35 2.42,1.01 0.68,0.68 1.03,1.58 1,2.54 -0.16,4.96 -2.38,9.69 -6.08,12.98l0 0z"/>
   </g>
  </g>
 </g>
</svg>
