<?xml version="1.0" encoding="UTF-8"?>
<!DOCTYPE svg PUBLIC "-//W3C//DTD SVG 1.1//EN" "http://www.w3.org/Graphics/SVG/1.1/DTD/svg11.dtd">
<!-- Creator: CorelDRAW 2021 (64-Bit Оценочная версия) -->
<svg xmlns="http://www.w3.org/2000/svg" xml:space="preserve" width="13.7588mm" height="13.7587mm" version="1.1" style="shape-rendering:geometricPrecision; text-rendering:geometricPrecision; image-rendering:optimizeQuality; fill-rule:evenodd; clip-rule:evenodd"
viewBox="0 0 162.17 162.17"
 xmlns:xlink="http://www.w3.org/1999/xlink"
 xmlns:xodm="http://www.corel.com/coreldraw/odm/2003">
 <defs>
  <style type="text/css">
   <![CDATA[
    .fil0 {fill:white}
    .fil1 {fill:black;fill-rule:nonzero}
   ]]>
  </style>
 </defs>
 <g id="Слой_x0020_1">
  <metadata id="CorelCorpID_0Corel-Layer"/>
  <path class="fil0" d="M24.33 0l113.52 0c13.38,0 24.33,10.95 24.33,24.33l0 113.52c0,13.38 -10.95,24.33 -24.33,24.33l-113.52 0c-13.38,0 -24.33,-10.95 -24.33,-24.33l0 -113.52c0,-13.38 10.95,-24.33 24.33,-24.33z"/>
  <g id="_1918916926112">
   <g>
    <g>
     <g>
      <path class="fil1" d="M76.78 71.61l-7.7 0c-1.03,0 -1.86,0.83 -1.86,1.86l0 9.59c0,1.03 0.83,1.86 1.86,1.86l7.7 0c1.03,0 1.86,-0.83 1.86,-1.86l0 -9.59c0,-1.03 -0.83,-1.86 -1.86,-1.86zm-1.86 9.59l-3.98 0 0 -5.87 3.98 0 0 5.87z"/>
      <path class="fil1" d="M85.39 84.92l7.7 0c1.03,0 1.86,-0.83 1.86,-1.86l0 -9.59c0,-1.03 -0.83,-1.86 -1.86,-1.86l-7.7 0c-1.03,0 -1.86,0.83 -1.86,1.86l0 9.59c0,1.03 0.83,1.86 1.86,1.86zm1.86 -9.59l3.98 0 0 5.87 -3.98 0 0 -5.87z"/>
      <path class="fil1" d="M76.78 89.52l-7.7 0c-1.03,0 -1.86,0.83 -1.86,1.86l0 9.59c0,1.03 0.83,1.86 1.86,1.86l7.7 0c1.03,0 1.86,-0.83 1.86,-1.86l0 -9.59c0,-1.03 -0.83,-1.86 -1.86,-1.86l0 0zm-1.86 9.59l-3.98 0 0 -5.87 3.98 0 0 5.87z"/>
      <path class="fil1" d="M94.95 100.97l0 -9.59c0,-1.03 -0.83,-1.86 -1.86,-1.86l-7.7 0c-1.03,0 -1.86,0.83 -1.86,1.86l0 9.59c0,1.03 0.83,1.86 1.86,1.86l7.7 0c1.03,0 1.86,-0.83 1.86,-1.86l0 0zm-3.72 -1.86l-3.98 0 0 -5.87 3.98 0 0 5.87z"/>
      <path class="fil1" d="M127.27 99.8c0,-3.64 -1.41,-6.96 -3.7,-9.44 0,-0.01 0,-0.02 0,-0.02l0 -23.28c0,-1.03 -0.83,-1.86 -1.86,-1.86l-18.61 0 0 -1.94c0,-1.03 -0.83,-1.86 -1.86,-1.86l-40.32 0c-1.03,0 -1.86,0.83 -1.86,1.86l0 1.94 -18.61 0c-1.03,0 -1.86,0.83 -1.86,1.86l0 23.3c-2.3,2.48 -3.7,5.8 -3.7,9.44 0,3.64 1.4,6.96 3.7,9.44l0 17.58c0,1.03 0.83,1.86 1.86,1.86l81.25 0c1.03,0 1.86,-0.83 1.86,-1.86l0 -17.58c2.3,-2.48 3.7,-5.8 3.7,-9.44l0 0zm-80.3 25.16l-4.66 0 0 -12.85c1.43,0.76 2.99,1.27 4.66,1.49l0 11.36 0 0zm-8.36 -25.16c0,-5.63 4.59,-10.21 10.22,-10.21 5.64,0 10.22,4.58 10.22,10.21 0,5.63 -4.59,10.21 -10.22,10.21 -5.64,0 -10.22,-4.58 -10.22,-10.21zm20.45 25.16l-8.38 0 0 -11.36c3.29,-0.44 6.22,-2.03 8.38,-4.36l0 15.72zm0 -34.61c-2.55,-2.75 -6.19,-4.48 -10.23,-4.48 -2.35,0 -4.57,0.58 -6.52,1.62l0 -18.58 16.75 0 0 21.44zm64.49 9.44c0,5.63 -4.59,10.21 -10.22,10.21 -5.64,0 -10.22,-4.58 -10.22,-10.21 0,-5.63 4.59,-10.21 10.22,-10.21 5.64,0 10.22,4.58 10.22,10.21zm-12.08 25.16l-8.38 0 0 -15.72c2.15,2.33 5.08,3.92 8.38,4.36l0 11.36zm-24.01 0l-12.76 0 0 -11.9 12.76 0 0 11.9zm1.86 -15.62l-16.47 0c-1.03,0 -1.86,0.83 -1.86,1.86l0 13.76 -8.2 0 0 -59.85 36.6 0 0 8.86c0,1.03 0.83,1.86 1.86,1.86 1.03,0 1.86,-0.83 1.86,-1.86l0 -5.06 16.75 0 0 18.58c-1.95,-1.03 -4.16,-1.62 -6.52,-1.62 -4.06,0 -7.72,1.75 -10.27,4.52 -0.18,-0.84 -0.92,-1.48 -1.82,-1.48 -1.03,0 -1.86,0.83 -1.86,1.86l0 34.18 -8.2 0 0 -13.76c0,-1.03 -0.83,-1.86 -1.86,-1.86l0 0zm25.87 15.62l0 -11.36c1.66,-0.22 3.23,-0.74 4.66,-1.49l0 12.85 -4.66 0z"/>
      <path class="fil1" d="M99.53 83.12c0.3,0.72 1.03,1.18 1.8,1.15 0.76,-0.04 1.43,-0.54 1.67,-1.26 0.25,-0.72 0.01,-1.55 -0.58,-2.03 -0.63,-0.51 -1.54,-0.56 -2.21,-0.11 -0.73,0.48 -1.02,1.45 -0.68,2.26z"/>
      <path class="fil1" d="M73.67 48.03l-0.47 5.74c-0.05,0.65 0.24,1.27 0.76,1.65 0.52,0.38 1.21,0.46 1.81,0.21l5.32 -2.22 5.32 2.22c0.23,0.1 0.47,0.14 0.72,0.14 0.39,0 0.77,-0.12 1.09,-0.36 0.52,-0.38 0.81,-1.01 0.76,-1.65l-0.47 -5.74 3.75 -4.37c0.42,-0.49 0.56,-1.17 0.36,-1.79 -0.2,-0.62 -0.71,-1.08 -1.34,-1.23l-5.61 -1.33 -3 -4.92c-0.34,-0.55 -0.94,-0.89 -1.59,-0.89 -0.65,0 -1.25,0.34 -1.59,0.89l-3 4.92 -5.61 1.33c-0.63,0.15 -1.14,0.62 -1.34,1.23 -0.2,0.62 -0.06,1.29 0.36,1.79l3.75 4.37zm4.45 -5.28c0.48,-0.12 0.9,-0.42 1.16,-0.84l1.81 -2.98 1.81 2.98c0.26,0.42 0.68,0.73 1.16,0.84l3.39 0.81 -2.27 2.65c-0.32,0.38 -0.48,0.87 -0.44,1.36l0.28 3.47 -3.22 -1.34c-0.23,-0.1 -0.47,-0.14 -0.72,-0.14 -0.24,0 -0.49,0.05 -0.72,0.14l-3.22 1.34 0.28 -3.47c0.04,-0.5 -0.12,-0.99 -0.44,-1.36l-2.27 -2.65 3.39 -0.81z"/>
      <path class="fil1" d="M97.3 52.23l-0.35 4.29c-0.05,0.65 0.24,1.27 0.76,1.65 0.53,0.38 1.21,0.46 1.81,0.21l3.97 -1.66 3.97 1.66c0.23,0.1 0.47,0.14 0.72,0.14 0.39,0 0.77,-0.12 1.09,-0.35 0.52,-0.38 0.81,-1.01 0.76,-1.65l-0.35 -4.29 2.8 -3.27c0.42,-0.49 0.56,-1.17 0.36,-1.79 -0.2,-0.62 -0.71,-1.08 -1.34,-1.23l-4.19 -0.99 -2.24 -3.68c-0.34,-0.55 -0.94,-0.89 -1.59,-0.89 -0.65,0 -1.25,0.34 -1.59,0.89l-2.24 3.68 -4.19 0.99c-0.63,0.15 -1.14,0.62 -1.34,1.23 -0.2,0.62 -0.06,1.29 0.36,1.79l2.8 3.27zm3.98 -3.84c0.48,-0.11 0.9,-0.42 1.16,-0.84l1.06 -1.73 1.06 1.73c0.26,0.42 0.68,0.73 1.16,0.84l1.97 0.47 -1.32 1.54c-0.32,0.38 -0.48,0.87 -0.44,1.36l0.16 2.02 -1.87 -0.78c-0.23,-0.1 -0.47,-0.14 -0.72,-0.14 -0.24,0 -0.49,0.05 -0.72,0.14l-1.87 0.78 0.16 -2.02c0.04,-0.5 -0.12,-0.99 -0.44,-1.36l-1.32 -1.54 1.98 -0.47z"/>
      <path class="fil1" d="M52.48 52.23l-0.35 4.29c-0.05,0.65 0.24,1.27 0.76,1.65 0.32,0.23 0.71,0.35 1.09,0.35 0.24,0 0.49,-0.05 0.72,-0.14l3.97 -1.66 3.97 1.66c0.6,0.25 1.28,0.17 1.81,-0.21 0.52,-0.38 0.81,-1.01 0.76,-1.65l-0.35 -4.29 2.8 -3.27c0.42,-0.49 0.56,-1.17 0.36,-1.78 -0.2,-0.62 -0.71,-1.08 -1.34,-1.23l-4.19 -0.99 -2.24 -3.68c-0.34,-0.55 -0.94,-0.89 -1.59,-0.89 -0.65,0 -1.25,0.34 -1.59,0.89l-2.24 3.68 -4.19 0.99c-0.63,0.15 -1.14,0.62 -1.34,1.23 -0.2,0.62 -0.06,1.29 0.36,1.78l2.8 3.27zm3.98 -3.84c0.48,-0.11 0.9,-0.42 1.16,-0.84l1.06 -1.73 1.06 1.73c0.26,0.42 0.68,0.73 1.16,0.84l1.97 0.47 -1.32 1.54c-0.32,0.38 -0.48,0.87 -0.44,1.36l0.16 2.02 -1.87 -0.78c-0.46,-0.19 -0.97,-0.19 -1.43,0l-1.87 0.78 0.16 -2.02c0.04,-0.5 -0.12,-0.98 -0.44,-1.36l-1.32 -1.54 1.97 -0.47z"/>
     </g>
    </g>
   </g>
  </g>
 </g>
</svg>
