<?xml version="1.0" encoding="UTF-8"?>
<!DOCTYPE svg PUBLIC "-//W3C//DTD SVG 1.1//EN" "http://www.w3.org/Graphics/SVG/1.1/DTD/svg11.dtd">
<!-- Creator: CorelDRAW 2021 (64-Bit Оценочная версия) -->
<svg xmlns="http://www.w3.org/2000/svg" xml:space="preserve" width="13.7588mm" height="13.7587mm" version="1.1" style="shape-rendering:geometricPrecision; text-rendering:geometricPrecision; image-rendering:optimizeQuality; fill-rule:evenodd; clip-rule:evenodd"
viewBox="0 0 1397.72 1397.71"
 xmlns:xlink="http://www.w3.org/1999/xlink"
 xmlns:xodm="http://www.corel.com/coreldraw/odm/2003">
 <defs>
  <style type="text/css">
   <![CDATA[
    .fil0 {fill:white}
    .fil1 {fill:black;fill-rule:nonzero}
   ]]>
  </style>
 </defs>
 <g id="Слой_x0020_1">
  <metadata id="CorelCorpID_0Corel-Layer"/>
  <path class="fil0" d="M209.66 0l978.41 0c115.3,0 209.66,94.34 209.66,209.66l0 978.39c0,115.32 -94.35,209.67 -209.66,209.67l-978.41 0c-115.3,0 -209.66,-94.34 -209.66,-209.67l0 -978.39c0,-115.31 94.35,-209.66 209.66,-209.66z"/>
  <g id="_1919209308384">
   <path class="fil1" d="M698.86 347.27c-26.26,0 -47.62,21.36 -47.62,47.62 0,26.27 21.36,47.63 47.62,47.63 26.26,0 47.62,-21.36 47.62,-47.63 0,-26.26 -21.36,-47.62 -47.62,-47.62zm0 71.45c-13.14,0 -23.81,-10.69 -23.81,-23.81 0,-13.14 10.69,-23.82 23.81,-23.82 13.14,0 23.81,10.69 23.81,23.82 0,13.13 -10.68,23.81 -23.81,23.81zm406.41 56.17c-0.08,-4.22 -2.62,-8.94 -7.3,-10.8l-388 -168.62c-7.05,-3.08 -15.15,-3.08 -22.2,0l-388.01 168.62c-4.09,1.75 -7.48,6.07 -7.31,11.15l0 38.92c0,24.08 19.59,43.66 43.66,43.66l9.38 0c-3.45,6.39 -5.41,13.68 -5.41,21.43 0,24.95 20.3,45.25 45.25,45.25 3.55,0 6.99,-0.46 10.32,-1.24l0 339.46c-15.47,-2.16 -30.16,8.63 -30.16,24.6l0 22.56 -29.37 0c-24.08,0 -43.66,19.59 -43.66,43.66l0 31.16c0,10.94 8.9,19.84 19.84,19.84l773.16 0c10.94,0 19.85,-8.9 19.85,-19.84l0 -31.16c0,-24.08 -19.59,-43.66 -43.66,-43.66l-29.37 0 0 -22.56c-0.02,-16.71 -14.76,-26.26 -30.17,-24.6l0 -339.46c3.34,0.78 6.79,1.24 10.32,1.24 24.95,0 45.25,-20.3 45.25,-45.25 0,-7.75 -1.96,-15.06 -5.4,-21.43l9.38 0c24.08,0 43.66,-19.59 43.66,-43.66l0 -38.92c-0.01,-0.1 0,-0.08 -0.02,-0.36l0 0zm-719.96 125.8c-11.81,0 -21.43,-9.61 -21.43,-21.42 0,-11.8 9.59,-21.4 21.39,-21.43l128.68 0c11.79,0.02 21.38,9.63 21.38,21.43 0,11.81 -9.61,21.42 -21.42,21.42 -10.21,0 -19.04,-7.23 -21.01,-17.21 -1.27,-6.45 -7.54,-10.66 -13.99,-9.38 -6.45,1.27 -10.65,7.54 -9.38,13.99 1.56,7.93 5.18,15.06 10.24,20.85l0 205.53c0,6.57 5.32,11.91 11.91,11.91 6.57,0 11.91,-5.33 11.91,-11.91l0 -191.2c3.33,0.78 6.78,1.24 10.32,1.24 24.95,0 45.25,-20.3 45.25,-45.25 0,-7.75 -1.96,-15.06 -5.41,-21.43l40.98 0c-3.44,6.39 -5.4,13.68 -5.4,21.43 0,24.95 20.3,45.25 45.25,45.25 3.54,0 6.99,-0.46 10.32,-1.24l0 339.46c-15.48,-2.17 -30.16,8.65 -30.16,24.6l0 22.56 -80.98 0 0 -22.56c-0.01,-16.7 -14.75,-26.27 -30.16,-24.6l0 -92.7c0,-6.58 -5.33,-11.92 -11.91,-11.92 -6.58,0 -11.91,5.33 -11.91,11.92l0 92.7 -60.33 0 0 -353.8c5.05,-5.79 8.68,-12.91 10.24,-20.85 1.27,-6.45 -2.93,-12.72 -9.38,-13.99 -6.46,-1.27 -12.72,2.93 -13.99,9.38 -1.97,9.98 -10.8,17.21 -21.01,17.21l0 0zm417.69 -42.86l40.98 0c-3.44,6.39 -5.4,13.68 -5.4,21.43 0,24.95 20.3,45.25 45.25,45.25 3.54,0 6.98,-0.46 10.31,-1.24l0 339.46c-15.48,-2.18 -30.16,8.65 -30.16,24.6l0 22.56 -80.97 0 0 -22.56c-0.01,-16.7 -14.76,-26.27 -30.16,-24.6l0 -339.46c3.33,0.78 6.78,1.24 10.32,1.24 24.94,0 45.24,-20.3 45.24,-45.25 0,-7.75 -1.96,-15.06 -5.4,-21.43l0 0zm-43.8 429.51l0 22.56 -120.67 0 0 -22.56c0,-0.44 0.37,-0.79 0.8,-0.79l119.07 0c0.44,0 0.79,0.36 0.79,0.79l0 0zm3.96 -386.65c-10.2,0 -19.04,-7.23 -21,-17.21 -1.28,-6.45 -7.54,-10.66 -13.99,-9.38 -6.45,1.27 -10.66,7.54 -9.38,13.99 1.56,7.93 5.18,15.06 10.23,20.85l0 353.8 -60.32 0 0 -353.8c5.05,-5.79 8.67,-12.91 10.23,-20.85 1.28,-6.45 -2.93,-12.72 -9.38,-13.99 -6.45,-1.27 -12.71,2.93 -13.99,9.38 -1.96,9.98 -10.8,17.21 -21,17.21 -11.82,0 -21.43,-9.61 -21.43,-21.43 0,-11.79 9.59,-21.4 21.38,-21.42l128.69 0c11.79,0.02 21.38,9.62 21.38,21.42 0,11.82 -9.61,21.43 -21.43,21.43l0 0zm-373.87 386.65c0,-0.44 0.36,-0.79 0.79,-0.79l119.07 0c0.44,0 0.79,0.36 0.79,0.79l0 22.56 -120.66 0 0 -22.56zm672.35 46.38c10.94,0 19.84,8.9 19.84,19.84l0 27.18 -765.22 0 0 -27.18c0,-10.94 8.9,-19.84 19.84,-19.84l725.54 0zm-53.98 -47.18c0.44,0 0.79,0.36 0.79,0.79l0 22.56 -120.66 0 0 -22.56c0,-0.44 0.36,-0.79 0.79,-0.79l119.07 0zm4.76 -385.86c-10.2,0 -19.04,-7.23 -21.01,-17.21 -1.27,-6.45 -7.53,-10.66 -13.98,-9.38 -6.46,1.27 -10.66,7.54 -9.39,13.99 1.56,7.93 5.19,15.06 10.24,20.85l0 353.8 -60.32 0 0 -353.8c5.05,-5.79 8.67,-12.91 10.23,-20.85 1.28,-6.45 -2.93,-12.72 -9.38,-13.99 -6.45,-1.27 -12.71,2.93 -13.99,9.38 -1.96,9.98 -10.8,17.21 -21.01,17.21 -11.81,0 -21.42,-9.61 -21.42,-21.43 0,-11.79 9.59,-21.4 21.38,-21.42l128.69 0c11.79,0.02 21.38,9.62 21.38,21.42 0,11.82 -9.61,21.43 -21.43,21.43zm69.06 -86.52c0,10.95 -8.9,19.85 -19.84,19.85l-725.54 0c-10.94,0 -19.84,-8.9 -19.84,-19.85l0 -27.17 555.96 0c6.57,0 11.91,-5.33 11.91,-11.91 0,-6.58 -5.33,-11.92 -11.91,-11.92l-510.59 0.01 335.66 -145.88c1.01,-0.44 2.16,-0.44 3.18,0.01l335.66 145.86 -108.34 0c-6.57,0 -11.91,5.33 -11.91,11.91 0,6.58 5.33,11.92 11.91,11.92l153.7 0 0 27.17 0 0z"/>
  </g>
 </g>
</svg>
