<?xml version="1.0" encoding="UTF-8"?>
<!DOCTYPE svg PUBLIC "-//W3C//DTD SVG 1.1//EN" "http://www.w3.org/Graphics/SVG/1.1/DTD/svg11.dtd">
<!-- Creator: CorelDRAW 2021 (64-Bit Оценочная версия) -->
<svg xmlns="http://www.w3.org/2000/svg" xml:space="preserve" width="13.7588mm" height="13.7587mm" version="1.1" style="shape-rendering:geometricPrecision; text-rendering:geometricPrecision; image-rendering:optimizeQuality; fill-rule:evenodd; clip-rule:evenodd"
viewBox="0 0 1397.72 1397.71"
 xmlns:xlink="http://www.w3.org/1999/xlink"
 xmlns:xodm="http://www.corel.com/coreldraw/odm/2003">
 <defs>
  <style type="text/css">
   <![CDATA[
    .fil0 {fill:white}
    .fil1 {fill:black;fill-rule:nonzero}
   ]]>
  </style>
 </defs>
 <g id="Слой_x0020_1">
  <metadata id="CorelCorpID_0Corel-Layer"/>
  <path class="fil0" d="M209.66 0l978.41 0c115.3,0 209.66,94.34 209.66,209.66l0 978.39c0,115.32 -94.35,209.67 -209.66,209.67l-978.41 0c-115.3,0 -209.66,-94.34 -209.66,-209.67l0 -978.39c0,-115.31 94.35,-209.66 209.66,-209.66z"/>
  <g id="_1918873948448">
   <g>
    <path class="fil1" d="M517.54 501.83l-85.76 0c-9.86,0 -17.87,8.01 -17.87,17.87l0 100.05c0,9.87 8.01,17.87 17.87,17.87l85.76 0c9.87,0 17.87,-7.99 17.87,-17.87l0 -100.05c0,-9.86 -7.99,-17.87 -17.87,-17.87zm-17.86 100.06l-50.03 0 0 -64.33 50.03 0 0 64.33z"/>
   </g>
   <g>
    <path class="fil1" d="M517.54 701.95l-85.76 0c-9.86,0 -17.87,7.99 -17.87,17.87l0 100.05c0,9.86 8.01,17.87 17.87,17.87l85.76 0c9.87,0 17.87,-8.01 17.87,-17.87l0 -100.05c0,-9.87 -7.99,-17.87 -17.87,-17.87zm-17.86 100.05l-50.03 0 0 -64.33 50.03 0 0 64.33z"/>
   </g>
   <g>
    <path class="fil1" d="M517.54 902.06l-85.76 0c-9.86,0 -17.87,8.01 -17.87,17.87l0 100.05c0,9.87 8.01,17.87 17.87,17.87l85.76 0c9.87,0 17.87,-7.99 17.87,-17.87l0 -100.05c0,-9.86 -7.99,-17.87 -17.87,-17.87zm-17.86 100.06l-50.03 0 0 -64.33 50.03 0 0 64.33z"/>
   </g>
   <g>
    <path class="fil1" d="M983.83 902.06l-85.76 0c-9.86,0 -17.87,8.01 -17.87,17.87l0 100.05c0,9.87 8.01,17.87 17.87,17.87l85.76 0c9.87,0 17.87,-7.99 17.87,-17.87l0 -100.05c0,-9.86 -8.01,-17.87 -17.87,-17.87zm-17.87 100.06l-50.02 0 0 -64.33 50.02 0 0 64.33z"/>
   </g>
   <g>
    <path class="fil1" d="M672.98 501.83l-85.76 0c-9.87,0 -17.87,8.01 -17.87,17.87l0 100.05c0,9.87 7.99,17.87 17.87,17.87l85.76 0c9.86,0 17.86,-7.99 17.86,-17.87l0 -100.05c0,-9.86 -7.99,-17.87 -17.86,-17.87zm-17.87 100.06l-50.03 0 0 -64.33 50.03 0 0 64.33z"/>
   </g>
   <g>
    <path class="fil1" d="M828.4 501.83l-85.76 0c-9.87,0 -17.87,8.01 -17.87,17.87l0 100.05c0,9.87 7.99,17.87 17.87,17.87l85.76 0c9.86,0 17.87,-7.99 17.87,-17.87l0 -100.05c0,-9.86 -8.01,-17.87 -17.87,-17.87zm-17.87 100.06l-50.03 0 0 -64.33 50.03 0 0 64.33z"/>
   </g>
   <g>
    <path class="fil1" d="M672.98 701.95l-85.76 0c-9.87,0 -17.87,7.99 -17.87,17.87l0 100.05c0,9.86 7.99,17.87 17.87,17.87l85.76 0c9.86,0 17.86,-8.01 17.86,-17.87l0 -100.05c0,-9.87 -7.99,-17.87 -17.86,-17.87zm-17.87 100.05l-50.03 0 0 -64.33 50.03 0 0 64.33z"/>
   </g>
   <g>
    <path class="fil1" d="M828.4 701.95l-85.76 0c-9.87,0 -17.87,7.99 -17.87,17.87l0 100.05c0,9.86 7.99,17.87 17.87,17.87l85.76 0c9.86,0 17.87,-8.01 17.87,-17.87l0 -100.05c0,-9.87 -8.01,-17.87 -17.87,-17.87zm-17.87 100.05l-50.03 0 0 -64.33 50.03 0 0 64.33z"/>
   </g>
   <g>
    <path class="fil1" d="M983.83 501.83l-85.76 0c-9.86,0 -17.87,8.01 -17.87,17.87l0 100.05c0,9.87 8.01,17.87 17.87,17.87l85.76 0c9.87,0 17.87,-7.99 17.87,-17.87l0 -100.05c0,-9.86 -8.01,-17.87 -17.87,-17.87zm-17.87 100.06l-50.02 0 0 -64.33 50.02 0 0 64.33z"/>
   </g>
   <g>
    <path class="fil1" d="M983.83 701.95l-85.76 0c-9.86,0 -17.87,7.99 -17.87,17.87l0 100.05c0,9.86 8.01,17.87 17.87,17.87l85.76 0c9.87,0 17.87,-8.01 17.87,-17.87l0 -100.05c0,-9.87 -8.01,-17.87 -17.87,-17.87zm-17.87 100.05l-50.02 0 0 -64.33 50.02 0 0 64.33z"/>
   </g>
   <g>
    <path class="fil1" d="M1138.39 1120.51l-67.02 0 0 -693.13c0,-9.86 -8.01,-17.86 -17.87,-17.86l-99.17 0 0 -64.44c0,-9.86 -7.99,-17.87 -17.86,-17.87l-98.25 0 0 -67.89c0,-9.87 -8.01,-17.87 -17.87,-17.87l-243 0c-9.86,0 -17.87,7.99 -17.87,17.87l0 67.89 -98.24 0c-9.87,0 -17.87,8.01 -17.87,17.87l0 64.44 -99.17 0c-9.86,0 -17.87,7.99 -17.87,17.86l0 693.13 -67.02 0c-9.87,0 -17.87,8.01 -17.87,17.87 0,9.86 7.99,17.87 17.87,17.87l879.06 0c9.87,0 17.87,-7.99 17.87,-17.87 0,-9.86 -7.99,-17.87 -17.87,-17.87zm-543.16 -843.32l207.26 0 0 50.02 -207.26 0 0 -50.02zm178.67 843.32l-123.62 0 123.62 -123.62 0 123.62zm0 -174.04c-0.4,0.33 -0.79,0.67 -1.17,1.05l-148.92 148.92 0 -75.72 114.6 -114.6 35.48 0 0 40.36zm-150.09 23.7l0 -64.06 64.07 0 -64.07 64.06zm411.82 150.34l-119.67 0 -106.33 0 0 -214.4 6.26 0c9.86,0 17.87,-7.99 17.87,-17.87 0,-9.86 -8.01,-17.87 -17.87,-17.87l-234.06 0c-9.86,0 -17.87,8.01 -17.87,17.87 0,9.86 8.01,17.87 17.87,17.87l6.26 0 0 214.4 -226 0 0 -675.26 198.34 0c9.86,0 17.86,-7.99 17.86,-17.87 0,-9.86 -7.99,-17.86 -17.86,-17.86l-81.31 0 0 -46.57 439.49 0 0 46.57 -217.02 0c-9.86,0 -17.87,7.99 -17.87,17.86 0,9.87 8.01,17.87 17.87,17.87l334.05 0 0 675.26z"/>
   </g>
   <g>
    <path class="fil1" d="M642.72 414.74c-3.32,-3.32 -7.93,-5.23 -12.64,-5.23 -4.69,0 -9.31,1.91 -12.63,5.23 -3.32,3.33 -5.23,7.93 -5.23,12.64 0,4.7 1.91,9.31 5.23,12.63 3.32,3.34 7.93,5.24 12.63,5.24 4.7,0 9.32,-1.9 12.64,-5.24 3.32,-3.32 5.23,-7.92 5.23,-12.63 0,-4.7 -1.91,-9.31 -5.23,-12.64z"/>
   </g>
  </g>
 </g>
</svg>
