<?xml version="1.0" encoding="UTF-8"?>
<!DOCTYPE svg PUBLIC "-//W3C//DTD SVG 1.1//EN" "http://www.w3.org/Graphics/SVG/1.1/DTD/svg11.dtd">
<!-- Creator: CorelDRAW 2021 (64-Bit Оценочная версия) -->
<svg xmlns="http://www.w3.org/2000/svg" xml:space="preserve" width="13.7588mm" height="13.7587mm" version="1.1" style="shape-rendering:geometricPrecision; text-rendering:geometricPrecision; image-rendering:optimizeQuality; fill-rule:evenodd; clip-rule:evenodd"
viewBox="0 0 162.17 162.17"
 xmlns:xlink="http://www.w3.org/1999/xlink"
 xmlns:xodm="http://www.corel.com/coreldraw/odm/2003">
 <defs>
  <style type="text/css">
   <![CDATA[
    .fil0 {fill:white}
    .fil1 {fill:black;fill-rule:nonzero}
   ]]>
  </style>
 </defs>
 <g id="Слой_x0020_1">
  <metadata id="CorelCorpID_0Corel-Layer"/>
  <path class="fil0" d="M24.33 0l113.52 0c13.38,0 24.33,10.95 24.33,24.33l0 113.52c0,13.38 -10.95,24.33 -24.33,24.33l-113.52 0c-13.38,0 -24.33,-10.95 -24.33,-24.33l0 -113.52c0,-13.38 10.95,-24.33 24.33,-24.33z"/>
  <path class="fil1" d="M97.27 111.19l0 15.38c0,0.89 0.72,1.61 1.61,1.61 0.89,0 1.61,-0.72 1.61,-1.61l0 -15.38c0,-0.89 -0.72,-1.61 -1.61,-1.61 -0.89,0 -1.61,0.72 -1.61,1.61zm6.05 0l0 15.38c0,0.89 0.72,1.61 1.61,1.61 0.89,0 1.61,-0.72 1.61,-1.61l0 -15.38c0,-0.89 -0.72,-1.61 -1.61,-1.61 -0.89,0 -1.61,0.72 -1.61,1.61zm9.47 7.62c0.89,0 1.61,-0.72 1.61,-1.61l0 -8.07c0,-3.26 -2.58,-5.93 -5.8,-6.09l0 -10.72c0,-2 -1.63,-3.63 -3.63,-3.63l-2.3 0c-0.08,-0.32 -0.19,-0.63 -0.33,-0.94l-10.29 -22.31c-1.13,-2.51 -3.22,-4.38 -5.8,-5.23 1.39,-1.53 2.19,-3.55 2.19,-5.72l0 -11.38c0,-4.52 -1.76,-8.77 -4.95,-11.97 -3.19,-3.2 -7.43,-4.96 -11.94,-4.96 -9.31,0 -16.89,7.6 -16.89,16.93l0 11.38c0,2.58 1.18,4.96 3.07,6.54l-1.94 0.73c-3.79,1.42 -6.38,4.95 -6.6,9l-0.22 4.08c-0.05,0.89 0.63,1.64 1.52,1.69 0.03,0 0.06,0 0.09,0 0.85,0 1.56,-0.67 1.6,-1.52l0.22 -4.08c0.15,-2.77 1.92,-5.18 4.51,-6.16l5.36 -2.01c2.09,3.03 5.53,4.86 9.27,4.86 3.93,0 7.57,-2.08 9.61,-5.39 0,0 3.61,0.9 3.63,0.91 1.93,0.48 3.5,1.8 4.33,3.64l8.22 17.83 -4.83 3.04 -6.65 -12.29c-0.58,-1.21 -2.97,-1.2 -3.03,0.75l0 12.11 -22.56 0 0 -12.11c0,-0.89 -0.72,-1.61 -1.61,-1.61 -0.89,0 -1.61,0.72 -1.61,1.61l0 13.65 -0.34 4.07 -5.51 0 0.6 -11.28c0.05,-0.89 -0.63,-1.64 -1.52,-1.69 -0.89,-0.05 -1.64,0.63 -1.69,1.52l-0.82 15.53c-0.19,3.35 2.52,6.21 5.89,6.21 0.78,0 1.54,-0.16 2.23,-0.45l-0.19 2.24c-0.09,1.07 0.27,2.13 1,2.92 0.46,0.5 1.05,0.87 1.7,1.07l1.34 17.1c-2.07,1.04 -3.5,3.18 -3.5,5.65 0,1.84 1.49,3.33 3.33,3.33l10.26 0c0.63,0 1.22,-0.18 1.72,-0.48 0.5,0.31 1.09,0.48 1.72,0.48l10.26 0c1.84,0 3.33,-1.49 3.33,-3.33 0,-2.47 -1.43,-4.61 -3.5,-5.65l1.34 -17.1c0.64,-0.2 1.23,-0.56 1.69,-1.06 0.72,-0.79 1.09,-1.85 1,-2.92l-1.36 -16.15 0 -7.3 5.8 10.72c0.71,1.3 1.99,2.24 3.35,2.66l0 7.18c-3.22,0.15 -5.8,2.82 -5.8,6.09l0 20.76c0,3.36 2.73,6.09 6.09,6.09l12.81 0c3.36,0 6.09,-2.73 6.09,-6.09l0 -5.18c0,-0.89 -0.72,-1.61 -1.61,-1.61 -0.89,0 -1.61,0.72 -1.61,1.61l0 5.18c0,1.59 -1.29,2.88 -2.88,2.88l-12.81 0c-1.59,0 -2.88,-1.29 -2.88,-2.88l0 -20.76c0,-1.59 1.29,-2.88 2.88,-2.88l12.81 0c1.59,0 2.88,1.29 2.88,2.88l0 8.07c0,0.89 0.72,1.61 1.61,1.61l0 0zm-41.23 -54.4c-2.44,0 -4.71,-1.1 -6.22,-2.95 0.98,-0.65 1.72,-1.58 2.13,-2.67 1.34,0.55 2.79,0.82 4.28,0.8 1.43,-0.02 2.8,-0.34 4.05,-0.88 0.47,1.02 1.24,1.89 2.21,2.47 -1.51,2 -3.89,3.23 -6.44,3.23l0 0zm-7.62 -15.68l0 -3.13c2.22,-0.03 4.41,-0.38 6.51,-1.05 1.38,-0.44 2.72,-1 3.98,-1.69 0.68,0.51 1.41,0.96 2.16,1.34 0.83,0.42 1.69,0.76 2.58,1.02l0 3.36c0,4.23 -3.36,7.73 -7.49,7.8 -2.06,0.03 -4,-0.74 -5.46,-2.19 -1.48,-1.45 -2.29,-3.39 -2.29,-5.46zm21.29 5.78c0,2.02 -1.12,3.82 -2.88,4.71 -0.44,-0.11 -1.63,-0.41 -2.02,-0.51 -0.88,-0.22 -1.54,-0.91 -1.76,-1.76 2.34,-2.03 3.83,-5.04 3.83,-8.38l0 -3.97c0,-1.12 -0.76,-2.08 -1.84,-2.35 -0.87,-0.21 -1.71,-0.52 -2.51,-0.93 -0.65,-0.33 -1.28,-0.72 -1.87,-1.18 -0.89,-0.68 -2.1,-0.78 -3.08,-0.23 -1.15,0.64 -2.37,1.16 -3.62,1.56 -2.02,0.64 -4.14,0.94 -6.29,0.9 -0.65,-0.01 -1.27,0.23 -1.74,0.69 -0.47,0.46 -0.72,1.07 -0.72,1.73l0 3.93c0,2.94 1.15,5.7 3.25,7.76 0.21,0.2 0.42,0.39 0.63,0.57 -0.1,0.87 -0.66,1.63 -1.49,1.96l-1.46 0.55c-2.21,-0.66 -3.77,-2.72 -3.77,-5.07l0 -11.38c0,-7.56 6.13,-13.72 13.67,-13.72 3.65,0 7.08,1.43 9.66,4.02 2.58,2.59 4.01,6.04 4.01,9.7l0 11.38 0 0zm-28.9 43.96c-0.12,1.38 -1.29,2.45 -2.67,2.45 -1.48,0 -2.68,-1.2 -2.68,-2.67 0,-0.05 0,-0.1 0,-0.15l0.05 -1.03 5.41 0 -0.12 1.4zm13.51 34.31l-10.26 0c-0.06,0 -0.11,-0.05 -0.11,-0.11 0,-1.71 1.39,-3.1 3.1,-3.1l4.28 0c1.71,0 3.1,1.39 3.1,3.1 0,0.06 -0.05,0.11 -0.11,0.11l0 0zm0.11 -5.62c-0.92,-0.52 -1.98,-0.82 -3.1,-0.82l-3.93 0 -1.28 -16.26 8.31 0 0 17.08 0 0zm13.71 5.5c0,0.06 -0.05,0.11 -0.11,0.11l-10.26 0c-0.06,0 -0.11,-0.05 -0.11,-0.11 0,-1.71 1.39,-3.1 3.1,-3.1l4.28 0c1.71,0 3.1,1.39 3.1,3.1zm-10.49 -5.5l0 -17.08 8.31 0 -1.28 16.26 -3.93 0c-1.13,0 -2.19,0.3 -3.1,0.82zm10.43 -20.29l-24.08 0c-0.41,-0.02 -0.63,-0.26 -0.61,-0.67 0,0 1.24,-14.74 1.24,-14.74l22.82 0 1.24 14.74c0.02,0.41 -0.2,0.65 -0.61,0.67zm11.07 -15.23l-0.62 -1.14 4.66 -2.93 0.71 1.53c0.39,0.86 0.31,1.8 -0.2,2.59 -0.51,0.78 -1.33,1.23 -2.26,1.23 -0.93,0 -1.8,-0.49 -2.29,-1.29l0 0zm10.72 11.41l-6.96 0 0 -7.08c1.42,-0.36 2.67,-1.25 3.5,-2.52 0.31,-0.48 0.54,-0.99 0.7,-1.52l2.35 0c0.23,0 0.41,0.18 0.41,0.41l0 10.71 0 0z"/>
 </g>
</svg>
