<?xml version="1.0" encoding="UTF-8"?>
<!DOCTYPE svg PUBLIC "-//W3C//DTD SVG 1.1//EN" "http://www.w3.org/Graphics/SVG/1.1/DTD/svg11.dtd">
<!-- Creator: CorelDRAW 2021 (64-Bit Оценочная версия) -->
<svg xmlns="http://www.w3.org/2000/svg" xml:space="preserve" width="13.7588mm" height="13.7587mm" version="1.1" style="shape-rendering:geometricPrecision; text-rendering:geometricPrecision; image-rendering:optimizeQuality; fill-rule:evenodd; clip-rule:evenodd"
viewBox="0 0 211.17 211.17"
 xmlns:xlink="http://www.w3.org/1999/xlink"
 xmlns:xodm="http://www.corel.com/coreldraw/odm/2003">
 <defs>
  <style type="text/css">
   <![CDATA[
    .fil0 {fill:white}
    .fil1 {fill:black;fill-rule:nonzero}
   ]]>
  </style>
 </defs>
 <g id="Слой_x0020_1">
  <metadata id="CorelCorpID_0Corel-Layer"/>
  <path class="fil0" d="M31.68 0l147.82 0c17.42,0 31.68,14.25 31.68,31.68l0 147.82c0,17.42 -14.26,31.68 -31.68,31.68l-147.82 0c-17.42,0 -31.68,-14.25 -31.68,-31.68l0 -147.82c0,-17.42 14.26,-31.68 31.68,-31.68z"/>
  <g id="_1919299530384">
   <g>
    <path class="fil1" d="M109.8 64.13l7.03 -12.18c0.21,-0.37 0.33,-0.79 0.33,-1.24 0,-1.38 -1.11,-2.5 -2.49,-2.5 -0.92,0 -1.73,0.5 -2.16,1.25l0 -0 -4.44 7.68 0 -8.93c0,-1.38 -1.12,-2.49 -2.49,-2.49 -1.38,0 -2.49,1.12 -2.49,2.49l0 8.93 -4.44 -7.68 0 0c-0.43,-0.75 -1.24,-1.25 -2.16,-1.25 -1.38,0 -2.49,1.12 -2.49,2.5 0,0.45 0.12,0.88 0.34,1.25l-0 0 7.03 12.18 -50.66 101.32 39.91 0 29.93 0 39.91 0 -50.66 -101.32zm-4.22 2.72l9.39 18.78 -1.91 0c0,-1.38 -1.12,-2.49 -2.49,-2.49 -1.38,0 -2.5,1.12 -2.5,2.49l-4.99 0c0,-1.38 -1.12,-2.49 -2.5,-2.49 -1.38,0 -2.49,1.12 -2.49,2.49l-1.91 0 9.39 -18.78zm-8.7 93.61l8.7 -37.68 8.7 37.68 -17.39 0zm22.51 0l-13.82 -59.87 -13.82 59.87 -32.99 0 34.92 -69.85 1.91 0c0,1.38 1.12,2.49 2.49,2.49 1.38,0 2.49,-1.12 2.49,-2.49l2.5 0c0,1.38 1.12,2.49 2.49,2.49 1.38,0 2.49,-1.12 2.49,-2.49l2.5 0c0,1.38 1.11,2.49 2.49,2.49 1.38,0 2.49,-1.12 2.49,-2.49l1.91 0 34.93 69.85 -32.99 0z"/>
   </g>
   <g>
    <path class="fil1" d="M89.89 151.22l-4.99 -4.99c-0.45,-0.45 -1.07,-0.73 -1.76,-0.73 -0.69,0 -1.31,0.28 -1.76,0.73l-3.23 3.23 -3.22 -3.23c-0.45,-0.45 -1.07,-0.73 -1.76,-0.73 -0.69,0 -1.31,0.28 -1.77,0.73l-4.99 4.99c-0.45,0.45 -0.73,1.07 -0.73,1.76 0,1.38 1.12,2.5 2.49,2.5 0.69,0 1.31,-0.28 1.77,-0.73l3.22 -3.23 3.22 3.23c0.45,0.45 1.07,0.73 1.76,0.73 0.69,0 1.31,-0.28 1.77,-0.73l3.22 -3.23 3.22 3.23c0.45,0.45 1.08,0.73 1.77,0.73 1.38,0 2.49,-1.12 2.49,-2.5 0,-0.69 -0.28,-1.31 -0.73,-1.76z"/>
   </g>
   <g>
    <path class="fil1" d="M144.77 151.22l-4.99 -4.99c-0.45,-0.45 -1.08,-0.73 -1.77,-0.73 -0.69,0 -1.31,0.28 -1.76,0.73l-3.22 3.23 -3.23 -3.23c-0.45,-0.45 -1.07,-0.73 -1.76,-0.73 -0.69,0 -1.31,0.28 -1.76,0.73l-4.99 4.99c-0.45,0.45 -0.73,1.07 -0.73,1.76 0,1.38 1.12,2.5 2.49,2.5 0.69,0 1.32,-0.28 1.77,-0.73l3.22 -3.23 3.22 3.23c0.45,0.45 1.08,0.73 1.77,0.73 0.69,0 1.31,-0.28 1.76,-0.73l3.22 -3.23 3.23 3.23c0.45,0.45 1.07,0.73 1.76,0.73 1.38,0 2.49,-1.12 2.49,-2.5 0,-0.69 -0.28,-1.31 -0.73,-1.76z"/>
   </g>
   <g>
    <path class="fil1" d="M83.14 120.55c-1.38,0 -2.49,1.12 -2.49,2.49 0,1.38 1.12,2.5 2.49,2.5 1.38,0 2.49,-1.12 2.49,-2.5 0,-1.38 -1.12,-2.49 -2.49,-2.49z"/>
   </g>
   <g>
    <path class="fil1" d="M93.11 120.55c-1.38,0 -2.49,1.12 -2.49,2.49 0,1.38 1.12,2.5 2.49,2.5 1.38,0 2.5,-1.12 2.5,-2.5 0,-1.38 -1.12,-2.49 -2.5,-2.49z"/>
   </g>
   <g>
    <path class="fil1" d="M118.06 120.55c-1.38,0 -2.5,1.12 -2.5,2.49 0,1.38 1.12,2.5 2.5,2.5 1.37,0 2.49,-1.12 2.49,-2.5 0,-1.38 -1.12,-2.49 -2.49,-2.49z"/>
   </g>
   <g>
    <path class="fil1" d="M128.04 120.55c-1.38,0 -2.49,1.12 -2.49,2.49 0,1.38 1.11,2.5 2.49,2.5 1.38,0 2.49,-1.12 2.49,-2.5 0,-1.38 -1.11,-2.49 -2.49,-2.49z"/>
   </g>
  </g>
 </g>
</svg>
