<?xml version="1.0" encoding="UTF-8"?>
<!DOCTYPE svg PUBLIC "-//W3C//DTD SVG 1.1//EN" "http://www.w3.org/Graphics/SVG/1.1/DTD/svg11.dtd">
<!-- Creator: CorelDRAW 2021 (64-Bit Оценочная версия) -->
<svg xmlns="http://www.w3.org/2000/svg" xml:space="preserve" width="5.0695mm" height="5.0696mm" version="1.1" style="shape-rendering:geometricPrecision; text-rendering:geometricPrecision; image-rendering:optimizeQuality; fill-rule:evenodd; clip-rule:evenodd"
viewBox="0 0 18.97 18.97"
 xmlns:xlink="http://www.w3.org/1999/xlink"
 xmlns:xodm="http://www.corel.com/coreldraw/odm/2003">
 <defs>
  <style type="text/css">
   <![CDATA[
    .fil0 {fill:white}
   ]]>
  </style>
 </defs>
 <g id="Слой_x0020_1">
  <metadata id="CorelCorpID_0Corel-Layer"/>
  <path class="fil0" d="M9.48 0c5.24,0 9.48,4.25 9.48,9.48 0,5.24 -4.25,9.48 -9.48,9.48 -5.24,0 -9.48,-4.25 -9.48,-9.48 0,-5.24 4.25,-9.48 9.48,-9.48zm3.97 10.47c-0.19,-0.25 -0.14,-0.36 0,-0.57 0,-0 1.61,-2.22 1.77,-2.97l0 -0c0.08,-0.27 0,-0.48 -0.4,-0.48l-1.32 0c-0.33,0 -0.49,0.17 -0.57,0.37 0,0 -0.67,1.6 -1.62,2.64 -0.31,0.3 -0.45,0.4 -0.61,0.4 -0.08,0 -0.21,-0.1 -0.21,-0.37l0 -2.56c0,-0.33 -0.09,-0.48 -0.37,-0.48l-2.07 0c-0.21,0 -0.33,0.15 -0.33,0.3 0,0.31 0.47,0.38 0.52,1.26l0 1.9c0,0.42 -0.08,0.49 -0.24,0.49 -0.45,0 -1.53,-1.61 -2.18,-3.45 -0.13,-0.36 -0.26,-0.5 -0.59,-0.5l-1.32 0c-0.38,0 -0.45,0.17 -0.45,0.37 0,0.34 0.45,2.04 2.08,4.29 1.09,1.53 2.62,2.36 4.01,2.36 0.84,0 0.94,-0.18 0.94,-0.5 0,-1.46 -0.08,-1.6 0.34,-1.6 0.19,0 0.53,0.1 1.31,0.84 0.89,0.88 1.04,1.27 1.54,1.27l1.32 0c0.37,0 0.56,-0.18 0.46,-0.55 -0.25,-0.77 -1.94,-2.34 -2.02,-2.45z"/>
 </g>
</svg>
